<svg xmlns="http://www.w3.org/2000/svg" xmlns:xlink="http://www.w3.org/1999/xlink" width="1920" zoomAndPan="magnify" viewBox="0 0 1440 809.999993" height="1080" preserveAspectRatio="xMidYMid meet" version="1.0"><defs><clipPath id="941ae0b1e9"><path d="M 353 656 L 1087 656 L 1087 677.105469 L 353 677.105469 Z M 353 656 " clip-rule="nonzero"/></clipPath><clipPath id="dff7fadca4"><path d="M 353 132.605469 L 1087 132.605469 L 1087 677.105469 L 353 677.105469 Z M 353 132.605469 " clip-rule="nonzero"/></clipPath></defs><g clip-path="url(#941ae0b1e9)"><path fill="#cb6ce6" d="M 1086.21875 656.390625 L 1086.21875 668.664062 C 1086.21875 673.394531 1082.371094 677.238281 1077.492188 677.09375 L 758.519531 669.550781 L 757.042969 669.550781 L 756.894531 670.289062 L 682.957031 670.289062 L 682.808594 669.550781 L 682.363281 669.550781 L 362.207031 677.09375 C 357.476562 677.238281 353.484375 673.394531 353.484375 668.664062 L 353.484375 656.390625 Z M 1086.21875 656.390625 " fill-opacity="1" fill-rule="nonzero"/></g><path fill="#e2a9f1" d="M 353.632812 156.414062 L 1086.070312 156.414062 L 1086.070312 670.289062 L 758.371094 662.601562 L 682.214844 662.601562 L 353.632812 670.289062 Z M 353.632812 156.414062 " fill-opacity="1" fill-rule="nonzero"/><path fill="#ffffff" d="M 1068.324219 642.339844 C 1068.324219 642.339844 1068.175781 642.339844 1067.878906 642.339844 L 1067.878906 646.039062 L 1063.738281 659.9375 C 1063.738281 659.9375 859.375 653.433594 798.59375 653.433594 L 641.253906 653.433594 C 580.476562 653.433594 376.109375 659.9375 376.109375 659.9375 L 371.96875 646.039062 L 371.96875 624.890625 L 372.410156 624.890625 L 372.410156 148.28125 C 372.410156 148.28125 581.066406 133.347656 641.84375 133.347656 C 702.621094 133.347656 720.515625 148.28125 720.515625 148.28125 C 720.515625 148.28125 738.410156 133.347656 799.1875 133.347656 C 859.964844 133.347656 1068.472656 148.28125 1068.472656 148.28125 Z M 1068.324219 642.339844 " fill-opacity="1" fill-rule="nonzero"/><g clip-path="url(#dff7fadca4)"><path fill="#8c52ff" d="M 1068.914062 155.824219 L 1068.914062 147.542969 L 1068.324219 147.542969 C 1066.253906 147.394531 859.078125 132.605469 798.890625 132.605469 C 742.550781 132.605469 723.179688 145.324219 720.21875 147.394531 C 717.410156 145.324219 698.039062 132.605469 641.699219 132.605469 C 581.511719 132.605469 374.335938 147.394531 372.265625 147.542969 L 371.671875 147.542969 L 371.671875 155.824219 L 353.1875 155.824219 L 353.1875 670.734375 L 353.484375 670.734375 C 353.925781 672.359375 354.667969 673.839844 355.851562 674.875 C 357.625 676.5 359.84375 677.386719 362.207031 677.386719 L 362.355469 677.386719 L 682.363281 669.847656 L 682.511719 670.585938 L 757.484375 670.585938 L 757.632812 669.847656 L 758.667969 669.847656 L 1077.640625 677.386719 C 1080.15625 677.386719 1082.371094 676.5 1084.148438 674.875 C 1085.332031 673.691406 1086.21875 672.210938 1086.511719 670.734375 L 1086.808594 670.734375 L 1086.808594 155.824219 Z M 1077.640625 676.5 L 758.667969 668.957031 L 757.78125 668.957031 L 758.816406 663.042969 L 1085.476562 670.734375 C 1085.035156 672.0625 1084.441406 673.246094 1083.40625 674.132812 C 1081.78125 675.761719 1079.710938 676.5 1077.640625 676.5 Z M 756.449219 669.699219 L 683.398438 669.699219 L 683.398438 669.550781 L 683.25 668.957031 L 682.214844 663.042969 L 682.066406 662.453125 L 682.066406 662.15625 L 757.632812 662.15625 L 757.632812 662.453125 L 757.484375 663.042969 L 756.449219 668.957031 Z M 356.589844 674.28125 C 355.554688 673.246094 354.960938 672.210938 354.519531 670.882812 L 681.179688 663.191406 L 682.214844 668.957031 L 362.355469 676.5 C 360.136719 676.5 358.066406 675.761719 356.589844 674.28125 Z M 354.222656 655.796875 L 354.222656 157.007812 L 371.820312 157.007812 L 371.820312 624.890625 L 371.375 624.890625 L 371.375 646.039062 L 374.335938 655.648438 L 374.480469 656.242188 L 374.628906 656.832031 L 375.664062 660.382812 L 376.109375 660.382812 C 377.144531 660.382812 435.851562 658.460938 499.292969 656.832031 C 506.539062 656.683594 513.636719 656.390625 520.882812 656.242188 C 528.570312 656.09375 535.964844 655.796875 543.507812 655.648438 C 583.730469 654.613281 620.847656 653.875 641.253906 653.875 L 682.363281 653.875 L 682.066406 655.648438 L 681.921875 656.242188 L 681.773438 656.832031 L 680.886719 662.007812 L 354.222656 669.699219 L 354.074219 669.699219 L 354.074219 656.390625 Z M 373.003906 155.824219 L 373.003906 148.726562 C 384.6875 147.839844 583.285156 133.789062 641.84375 133.789062 C 698.1875 133.789062 717.707031 146.804688 719.925781 148.429688 L 719.925781 641.601562 C 715.785156 640.269531 695.230469 634.355469 641.84375 634.355469 C 583.285156 634.355469 385.425781 641.453125 373.003906 641.898438 L 373.003906 156.414062 C 373.003906 156.414062 373.003906 155.824219 373.003906 155.824219 Z M 720.960938 148.578125 C 723.179688 146.949219 742.550781 133.9375 799.039062 133.9375 C 857.597656 133.9375 1056.050781 147.984375 1067.878906 148.875 L 1067.878906 641.75 C 1067.734375 641.75 1067.585938 641.75 1067.4375 641.75 C 1051.023438 641.15625 856.859375 634.207031 799.1875 634.207031 C 745.804688 634.207031 725.25 640.121094 721.109375 641.453125 L 721.109375 155.824219 Z M 681.476562 662.304688 Z M 1064.183594 656.390625 L 1064.035156 656.980469 L 1063.296875 659.347656 C 1059.007812 659.199219 1024.847656 658.164062 981.519531 656.980469 C 974.867188 656.832031 968.210938 656.539062 961.261719 656.390625 C 954.3125 656.242188 947.507812 655.945312 940.410156 655.796875 C 885.25 654.320312 826.394531 652.988281 798.449219 652.988281 L 755.121094 652.988281 L 722.289062 642.488281 C 727.910156 640.714844 748.910156 635.539062 799.1875 635.539062 C 857.007812 635.539062 1051.464844 642.488281 1067.4375 643.082031 L 1067.4375 646.1875 L 1064.480469 655.945312 Z M 375.664062 656.390625 L 375.515625 655.796875 L 372.558594 646.039062 L 372.558594 643.082031 C 375.960938 642.933594 582.101562 635.539062 641.84375 635.539062 C 691.976562 635.539062 712.972656 640.714844 718.59375 642.488281 L 684.730469 652.988281 L 641.253906 652.988281 C 613.304688 652.988281 554.597656 654.320312 499.292969 655.796875 C 492.191406 655.945312 485.390625 656.242188 478.441406 656.390625 C 471.488281 656.539062 464.835938 656.832031 458.179688 656.980469 C 415 658.164062 380.691406 659.347656 376.40625 659.347656 L 375.664062 656.980469 Z M 758.371094 662.304688 Z M 1085.625 655.796875 L 1085.625 669.699219 L 1085.476562 669.699219 L 758.667969 662.007812 L 757.78125 656.832031 L 757.632812 656.242188 L 757.484375 655.648438 L 757.191406 653.875 L 798.300781 653.875 C 818.855469 653.875 855.972656 654.613281 896.046875 655.648438 C 903.589844 655.796875 910.984375 656.09375 918.671875 656.242188 C 925.917969 656.390625 933.015625 656.683594 940.261719 656.832031 C 1003.851562 658.609375 1062.410156 660.382812 1063.445312 660.382812 L 1063.886719 660.382812 L 1064.921875 656.832031 L 1065.070312 656.242188 L 1065.21875 655.648438 L 1068.175781 646.1875 L 1068.175781 642.933594 L 1068.769531 642.933594 L 1068.769531 157.007812 L 1085.332031 157.007812 L 1085.332031 655.648438 L 1085.625 655.648438 Z M 1085.625 655.796875 " fill-opacity="1" fill-rule="nonzero"/></g></svg>