<svg xmlns="http://www.w3.org/2000/svg" xmlns:xlink="http://www.w3.org/1999/xlink" width="1920" zoomAndPan="magnify" viewBox="0 0 1440 809.999993" height="1080" preserveAspectRatio="xMidYMid meet" version="1.0"><path fill="#feed60" d="M 786.113281 260.960938 C 763.828125 252.167969 737.578125 254.148438 714.179688 255.261719 C 690.40625 256.503906 666.511719 260.835938 646.949219 275.328125 C 608.691406 303.691406 596.308594 355.089844 613.023438 399.179688 C 622.0625 422.957031 638.53125 443.148438 659.207031 457.886719 C 669.855469 465.441406 681.738281 470.269531 693.378906 476.214844 C 703.53125 481.417969 718.386719 492.8125 712.199219 506.1875 C 711.453125 507.796875 711.453125 509.285156 711.949219 510.644531 C 712.074219 512.378906 712.691406 513.988281 714.054688 515.105469 C 711.332031 523.402344 716.035156 532.195312 724.332031 535.910156 C 727.921875 537.523438 731.882812 538.140625 735.96875 538.386719 C 734.730469 549.90625 747.980469 558.082031 759 556.84375 C 770.265625 555.605469 779.304688 544.332031 773.359375 534.175781 C 778.683594 532.816406 783.636719 530.460938 786.730469 525.507812 C 790.445312 519.5625 790.324219 512.007812 787.105469 506.0625 C 787.351562 505.320312 787.476562 504.578125 787.351562 503.585938 C 784.628906 476.835938 807.902344 457.886719 820.78125 437.203125 C 832.417969 418.375 839.105469 396.578125 840.839844 374.53125 C 843.808594 333.167969 828.332031 277.804688 786.113281 260.960938 Z M 756.027344 545.199219 C 751.445312 545.078125 746.492188 542.476562 747.980469 537.644531 C 752.1875 537.148438 756.398438 536.40625 760.359375 536.035156 C 760.730469 536.035156 760.980469 535.910156 761.351562 535.910156 C 761.351562 537.273438 761.722656 538.636719 762.835938 539.875 C 765.933594 543.21875 757.882812 545.199219 756.027344 545.199219 Z M 775.09375 520.679688 C 770.761719 524.144531 763.332031 523.898438 758.132812 524.394531 C 751.570312 525.011719 745.132812 526.003906 738.570312 526.25 C 734.359375 526.5 721.113281 525.261719 725.445312 517.707031 C 725.691406 517.332031 725.816406 516.960938 725.941406 516.714844 C 742.65625 516.839844 759.246094 514.609375 775.464844 510.398438 C 778.1875 513.371094 778.5625 517.953125 775.09375 520.679688 Z M 829.199219 366.234375 C 828.703125 390.015625 821.769531 413.546875 808.894531 433.609375 C 795.648438 454.046875 775.21875 472.625 775.09375 498.382812 C 765.3125 501.109375 755.40625 502.96875 745.503906 503.957031 C 750.828125 483.273438 753.425781 461.847656 753.179688 440.421875 C 753.054688 429.027344 752.066406 417.757812 750.332031 406.609375 C 749.589844 401.902344 748.847656 396.949219 747.855469 392.121094 C 748.597656 391.75 749.21875 391.5 749.960938 391.128906 C 768.160156 381.839844 779.550781 361.527344 778.5625 341.339844 C 778.1875 333.785156 766.425781 333.785156 766.796875 341.339844 C 767.542969 357.316406 759.121094 372.921875 744.882812 380.476562 C 744.386719 378.867188 743.769531 377.382812 743.152344 375.769531 C 739.808594 367.597656 732.132812 360.164062 722.597656 361.898438 C 715.046875 363.136719 710.585938 369.949219 710.710938 377.382812 C 710.835938 385.433594 716.285156 392.242188 723.835938 394.71875 C 727.921875 396.082031 732.253906 396.207031 736.589844 395.585938 C 744.636719 431.378906 742.777344 469.652344 733.121094 504.824219 C 730.273438 504.949219 727.425781 504.949219 724.578125 504.949219 C 728.046875 486.742188 711.703125 472.003906 695.730469 464.324219 C 675.796875 454.664062 657.71875 444.632812 643.109375 427.417969 C 613.394531 392.613281 607.453125 338.863281 636.425781 301.707031 C 650.292969 283.996094 669.730469 273.347656 691.890625 269.382812 C 703.777344 267.277344 715.910156 266.90625 727.921875 266.65625 C 739.558594 266.410156 751.320312 266.039062 762.835938 267.402344 C 774.226562 268.761719 785.617188 272.105469 794.902344 279.167969 C 803.324219 285.605469 809.761719 294.523438 814.714844 303.8125 C 824.867188 322.886719 829.570312 344.5625 829.199219 366.234375 Z M 733.492188 384.191406 C 729.035156 384.6875 724.578125 383.945312 722.84375 379.734375 C 721.855469 377.257812 721.980469 373.914062 724.949219 373.417969 C 729.777344 372.550781 732.378906 380.601562 733.371094 383.820312 C 733.492188 383.945312 733.492188 384.070312 733.492188 384.191406 Z M 733.492188 384.191406 " fill-opacity="1" fill-rule="nonzero"/></svg>