<svg xmlns="http://www.w3.org/2000/svg" xmlns:xlink="http://www.w3.org/1999/xlink" width="1920" zoomAndPan="magnify" viewBox="0 0 1440 809.999993" height="1080" preserveAspectRatio="xMidYMid meet" version="1.0"><path fill="#e8f6e7" d="M 930.15625 332.523438 C 929.808594 332.371094 929.375 332.289062 928.886719 332.25 L 930.15625 332.523438 " fill-opacity="1" fill-rule="nonzero"/><path fill="#e8f6e7" d="M 806.484375 330.984375 C 807.417969 330.925781 807.804688 330.703125 807.851562 330.492188 C 806.984375 330.644531 806.277344 330.78125 806.484375 330.984375 " fill-opacity="1" fill-rule="nonzero"/><path fill="#e8f6e7" d="M 785.585938 328.445312 C 786.035156 328.515625 786.414062 328.550781 786.816406 328.601562 C 786.351562 328.386719 785.875 328.269531 785.585938 328.445312 " fill-opacity="1" fill-rule="nonzero"/><path fill="#e8f6e7" d="M 928.886719 332.25 L 925.613281 331.527344 C 925.386719 332.277344 927.289062 332.082031 928.886719 332.25 " fill-opacity="1" fill-rule="nonzero"/><path fill="#e8f6e7" d="M 984.660156 329.441406 L 982.839844 330.382812 L 983.832031 330.378906 C 984.128906 330.113281 984.398438 329.800781 984.660156 329.441406 " fill-opacity="1" fill-rule="nonzero"/><path fill="#e8f6e7" d="M 1003.449219 357.382812 C 1004.253906 357.914062 1004.640625 358.605469 1004.792969 359.425781 C 1005.164062 359.4375 1005.609375 359.316406 1006.175781 359.003906 C 1006.265625 358.070312 1004.300781 357.742188 1003.449219 357.382812 " fill-opacity="1" fill-rule="nonzero"/><path fill="#e8f6e7" d="M 1002.914062 425.457031 C 1002.945312 425.597656 1002.972656 425.726562 1003.003906 425.828125 L 1002.914062 425.457031 " fill-opacity="1" fill-rule="nonzero"/><path fill="#e8f6e7" d="M 1002.730469 424.664062 L 1002.914062 425.457031 C 1002.863281 425.191406 1002.804688 424.894531 1002.730469 424.664062 " fill-opacity="1" fill-rule="nonzero"/><path fill="#e8f6e7" d="M 953.203125 329.957031 C 953.128906 329.664062 952.980469 329.410156 952.824219 329.257812 C 952.824219 329.503906 952.972656 329.738281 953.203125 329.957031 " fill-opacity="1" fill-rule="nonzero"/><path fill="#e8f6e7" d="M 1000.726562 475.289062 L 1000.058594 475.390625 C 999.988281 475.765625 999.914062 476.128906 999.914062 476.492188 L 1000.726562 475.289062 " fill-opacity="1" fill-rule="nonzero"/><path fill="#e8f6e7" d="M 747.339844 325.933594 C 747.417969 325.957031 747.445312 325.957031 747.511719 325.972656 C 748.515625 325.75 747.945312 325.789062 747.339844 325.933594 " fill-opacity="1" fill-rule="nonzero"/><path fill="#e8f6e7" d="M 435.417969 382.753906 C 437.167969 378.773438 437.660156 389.226562 439.605469 383.234375 C 438.84375 383.796875 436.554688 377.792969 435.417969 382.753906 " fill-opacity="1" fill-rule="nonzero"/><path fill="#e8f6e7" d="M 659.222656 327.109375 C 659.402344 327.457031 659.75 327.71875 660.121094 327.96875 C 660.089844 327.765625 659.886719 327.523438 659.222656 327.109375 " fill-opacity="1" fill-rule="nonzero"/><path fill="#e8f6e7" d="M 724.867188 329.898438 L 723.242188 329.636719 C 723.890625 329.8125 724.410156 329.875 724.867188 329.898438 " fill-opacity="1" fill-rule="nonzero"/><path fill="#e8f6e7" d="M 624.414062 329.714844 C 623.964844 329.605469 623.566406 329.539062 622.746094 329.71875 C 622.855469 329.816406 622.96875 329.890625 623.113281 329.957031 C 623.429688 329.757812 623.828125 329.640625 624.414062 329.714844 " fill-opacity="1" fill-rule="nonzero"/><path fill="#e8f6e7" d="M 624.414062 329.714844 C 624.625 329.769531 624.851562 329.828125 625.136719 329.875 C 624.867188 329.789062 624.628906 329.742188 624.414062 329.714844 " fill-opacity="1" fill-rule="nonzero"/><path fill="#e8f6e7" d="M 589.65625 329.890625 C 589.839844 330.039062 590.09375 330.148438 590.308594 330.28125 C 590.664062 330.242188 591.070312 330.210938 591.433594 330.175781 L 589.65625 329.890625 " fill-opacity="1" fill-rule="nonzero"/><path fill="#e8f6e7" d="M 775.222656 480.328125 C 775.210938 480.308594 775.183594 480.296875 775.132812 480.277344 C 775.164062 480.296875 775.191406 480.308594 775.222656 480.328125 " fill-opacity="1" fill-rule="nonzero"/><path fill="#e8f6e7" d="M 619.019531 331.375 C 619.070312 331.320312 619.109375 331.261719 619.109375 331.203125 C 619.109375 331.203125 619.058594 331.277344 619.019531 331.375 " fill-opacity="1" fill-rule="nonzero"/><path fill="#e8f6e7" d="M 707.5625 480.03125 C 707.433594 480.007812 707.296875 479.984375 707.15625 479.949219 C 707.300781 479.992188 707.4375 480.015625 707.5625 480.03125 " fill-opacity="1" fill-rule="nonzero"/><path fill="#e8f6e7" d="M 742.675781 480.5 C 742.675781 480.488281 742.671875 480.476562 742.671875 480.460938 C 742.632812 480.476562 742.632812 480.488281 742.675781 480.5 " fill-opacity="1" fill-rule="nonzero"/><path fill="#e8f6e7" d="M 866.789062 478.996094 C 867.070312 479.097656 867.425781 479.195312 867.867188 479.316406 C 867.503906 479.207031 867.144531 479.097656 866.789062 478.996094 " fill-opacity="1" fill-rule="nonzero"/><path fill="#e8f6e7" d="M 749.59375 326.734375 C 750.128906 326.710938 750.621094 326.652344 751.078125 326.554688 C 750.445312 326.589844 749.960938 326.652344 749.59375 326.734375 " fill-opacity="1" fill-rule="nonzero"/><path fill="#e8f6e7" d="M 1001.03125 423.085938 C 1000.933594 423.3125 1000.828125 423.476562 1000.726562 423.59375 L 1000.726562 421.414062 C 1000.832031 421.9375 1000.9375 422.492188 1001.03125 423.085938 Z M 770.453125 482.417969 C 770.503906 482.34375 770.601562 482.261719 770.652344 482.175781 C 770.488281 482.554688 770.308594 482.902344 769.992188 483.160156 C 768.320312 483.4375 767.765625 483.050781 767.535156 482.652344 C 768.320312 482.617188 769.246094 482.554688 770.453125 482.417969 Z M 1004.320312 398.058594 L 1002.191406 397.167969 C 1002.269531 396.242188 1002.429688 394.394531 1003.277344 394.738281 C 1001.824219 391.273438 1002.355469 395.328125 1000.980469 393.320312 C 1002.914062 388.835938 1000.074219 380.953125 1003.464844 379.945312 C 1001.847656 378.332031 1002.214844 384.230469 1001.09375 379.445312 C 1004.738281 378.082031 1000.46875 373.914062 1002.140625 369.816406 C 1004.019531 371.074219 1003.023438 374.953125 1004.703125 370.855469 C 1001.523438 368.382812 1005.402344 362.878906 1004.792969 359.425781 C 1003.527344 359.34375 1003.261719 357.46875 1003.207031 354.882812 C 1003.183594 353.59375 1003.207031 352.121094 1003.1875 350.621094 C 1003.179688 349.867188 1003.15625 349.101562 1003.113281 348.34375 C 1003.089844 347.96875 1003.058594 347.589844 1003.023438 347.21875 C 1003.003906 347.027344 1002.988281 346.835938 1002.964844 346.648438 C 1002.941406 346.425781 1002.914062 346.210938 1002.894531 345.992188 C 1003.199219 346.140625 1003.457031 344.496094 1003.714844 341.824219 C 1003.96875 339.15625 1004.21875 335.472656 1004.488281 331.714844 C 1001.90625 331.5 999.3125 331.265625 997.28125 331.007812 L 997.722656 330.582031 C 997.019531 331.222656 996.066406 331.671875 994.988281 331.992188 C 993.90625 332.3125 992.695312 332.511719 991.410156 332.644531 C 990.765625 332.710938 990.097656 332.761719 989.4375 332.800781 C 988.894531 332.835938 988.34375 332.878906 987.785156 332.914062 C 986.679688 332.984375 985.574219 333.054688 984.558594 333.1875 C 984.722656 331.652344 985.449219 331.050781 987.644531 330.363281 L 983.832031 330.378906 C 982.933594 331.195312 981.75 331.628906 979.277344 331.921875 L 980.234375 330.011719 C 975.167969 330.113281 970.027344 332.257812 963.507812 330.984375 C 963.257812 332.191406 965.722656 334.039062 965.203125 335.476562 L 961.660156 335.476562 C 961.78125 334.875 962.164062 334.335938 963.09375 334.136719 C 962.5 334.257812 960.984375 334.933594 959.792969 334.519531 L 962.550781 332.902344 C 959.578125 332.1875 960.992188 334.257812 958.625 334.101562 C 958.667969 332.730469 956.863281 333.125 957.203125 332.03125 C 957.8125 331.898438 959.277344 332.601562 960.183594 332.0625 C 957.511719 331.816406 954.269531 330.996094 953.203125 329.957031 C 953.433594 330.738281 953.203125 331.808594 951.242188 331.988281 C 946.171875 332.089844 949.503906 330.332031 946.550781 329.625 C 945.320312 330.582031 942.089844 329.59375 942.003906 331.648438 C 940.523438 331.636719 940.246094 330.679688 939.675781 330.117188 C 937.050781 331.027344 927.421875 330.382812 930.378906 332.570312 L 931.054688 332.710938 C 930.921875 332.753906 930.773438 332.757812 930.621094 332.800781 C 922.023438 334.84375 912.765625 331.636719 904.234375 332.515625 L 904.246094 331.828125 C 899.152344 332.613281 892.910156 332.292969 889.273438 333.769531 C 887.769531 333.769531 885.71875 332.515625 886.367188 331.699219 C 882.46875 332.214844 882.035156 332.984375 876.414062 331.855469 C 880.324219 330.652344 875.0625 330.785156 880.421875 330.976562 C 875.367188 330.382812 874.222656 329.277344 868.789062 331.160156 C 870.640625 329.394531 864.984375 328.941406 862.578125 329.46875 L 866.125 330.726562 C 863.417969 330.984375 861.058594 330.828125 858.652344 330.679688 L 859.953125 328.359375 C 849.605469 325.539062 841.289062 333.15625 833.40625 328.441406 C 830.667969 330.058594 839.03125 329.578125 836.582031 331.472656 C 831.820312 331.164062 826.859375 327.839844 825.367188 327.828125 C 818.847656 326.546875 819.285156 331.214844 812.460938 330.339844 C 813.332031 331.164062 814.152344 333.367188 809.054688 334.148438 C 804.289062 333.84375 803.199219 330.679688 806.207031 330.019531 C 807.351562 329.949219 807.902344 330.210938 807.851562 330.492188 C 809.390625 330.191406 811.410156 329.835938 809.527344 328.941406 L 808.90625 329.769531 C 806.542969 328.925781 799.988281 329.007812 801.527344 327.652344 C 798.457031 328.328125 799.503906 328.839844 801.53125 329.242188 C 796.101562 328.382812 792.710938 329.355469 786.816406 328.601562 C 787.816406 329.054688 788.738281 330.027344 787.746094 330.019531 C 778.519531 328.996094 783.683594 331.585938 777.433594 331.949219 C 773.878906 330.6875 778.703125 328.941406 772.410156 329.996094 C 768.570312 329.144531 771.597656 327.800781 773.125 327.128906 C 767.394531 328.722656 762.410156 326.082031 759.140625 325.789062 L 762.160156 325.121094 C 760.351562 325.519531 758.871094 325.507812 757.367188 325.5 L 759.089844 327.15625 C 757.316406 326.867188 755.816406 326.859375 755.847656 326.171875 C 754.023438 327.253906 757.25 328.925781 753.625 330.40625 C 751.257812 329.566406 746.425781 331.304688 745.609375 329.113281 C 752.296875 329.78125 746.289062 327.464844 749.59375 326.734375 C 748.710938 326.769531 747.710938 326.699219 746.605469 326.515625 C 746.339844 326.273438 746.855469 326.0625 747.339844 325.933594 C 740.226562 323.972656 744.074219 328.417969 736.699219 328.367188 C 737.636719 327.128906 734.988281 326.019531 733.785156 326.285156 C 736.757812 326.308594 735.210938 328.34375 732.480469 329.292969 C 727.753906 328.332031 727.347656 330.011719 724.867188 329.898438 L 727.695312 330.351562 C 726.734375 331.585938 724.375 331.425781 721.078125 331.816406 C 720.996094 331.527344 721.222656 331.351562 721.554688 331.238281 C 718.136719 331.9375 714.019531 328.652344 709.523438 329.941406 C 707.160156 329.105469 709.296875 327.617188 707.21875 327.054688 C 701.503906 328.65625 701.027344 325.355469 695.015625 326.679688 C 696.75 328.339844 697.050781 327.9375 692.820312 329.558594 L 702.703125 328.386719 L 696.359375 330.804688 C 699.339844 330.828125 702.652344 329.757812 704.4375 330.042969 C 701.414062 331.398438 701.726562 330.984375 703.15625 332.363281 C 699.074219 329.871094 695.0625 333.816406 690.347656 332.132812 L 690.496094 328.019531 C 683.402344 326.183594 677.890625 330.128906 668.683594 329.09375 L 671.644531 329.808594 C 670.410156 331.445312 665.957031 330.039062 662.980469 330.703125 C 663.257812 329.324219 661.390625 328.824219 660.121094 327.96875 C 660.273438 328.992188 653.378906 327.875 652.542969 330.621094 L 648.433594 328.8125 C 640.996094 328.070312 639.945312 332.730469 632.800781 332.257812 C 634.957031 330.765625 631.707031 329.789062 636.496094 328.722656 C 634.105469 328.707031 631.960938 328.457031 631.921875 329.410156 C 630.53125 328.550781 625.304688 331.261719 623.113281 329.957031 C 622.105469 330.5625 621.777344 332.003906 619.097656 331.886719 C 618.925781 331.71875 618.960938 331.515625 619.019531 331.375 C 618.429688 331.941406 615.113281 332.261719 617.253906 333.65625 C 609.90625 329.363281 596.710938 333.964844 590.308594 330.28125 C 585.101562 330.742188 578.828125 331.1875 574.101562 331.285156 C 574.40625 330.871094 574.117188 330.597656 575.011719 330.742188 C 568.488281 329.460938 571 334.691406 563.582031 333.265625 C 559.789062 331.039062 567.523438 332.0625 565.15625 331.21875 C 564.128906 326.695312 556.203125 331.835938 551.207031 329.195312 L 552.414062 328.929688 C 548.601562 327.390625 543.101562 330.644531 536.863281 330.320312 C 536.863281 330.320312 537.171875 329.921875 536.902344 329.636719 C 532.636719 331.945312 524.5625 332.707031 518.5625 333.347656 C 520.429688 331.578125 521.285156 332.410156 520.152344 330.613281 C 517.457031 330.867188 520.9375 333.503906 515.570312 334.003906 C 513.824219 333.035156 509.949219 332.1875 509.433594 330.269531 L 514.5 330.164062 C 511.90625 327.679688 507.945312 330.25 505.277344 329.816406 L 505.621094 328.730469 C 497.855469 329.085938 497.75 331.820312 489.410156 331.625 L 490.269531 332.449219 C 485.710938 335.15625 486.449219 330.921875 481.90625 332.9375 L 480.527344 330.191406 C 477.519531 330.851562 469.988281 332.847656 464.597656 333.363281 C 467.65625 331.324219 473.964844 330.28125 477.871094 329.074219 C 474.890625 329.050781 467.742188 329.273438 466.183594 330.628906 C 467.386719 330.363281 468.902344 329.691406 470.085938 330.113281 C 466.429688 332.277344 461.617188 333.339844 455.675781 333.292969 C 455.847656 332.421875 455.550781 331.796875 454.914062 331.347656 C 454.875 331.320312 454.832031 331.292969 454.789062 331.265625 C 454.734375 331.238281 454.671875 331.214844 454.609375 331.1875 C 454.484375 331.136719 454.347656 331.085938 454.207031 331.042969 C 453.925781 330.953125 453.613281 330.867188 453.269531 330.796875 C 452.589844 330.648438 451.792969 330.53125 450.914062 330.441406 C 449.152344 330.261719 447.058594 330.175781 444.84375 330.113281 C 442.625 330.050781 440.292969 330.007812 437.945312 329.90625 C 437.738281 334.46875 437.277344 338.574219 435.84375 340.640625 C 435.96875 341.78125 436.074219 342.898438 436.164062 343.996094 L 436.277344 345.632812 L 436.328125 346.441406 L 436.34375 346.644531 L 436.351562 346.742188 L 436.355469 346.804688 L 436.378906 347.050781 C 436.484375 348.363281 436.542969 349.675781 436.546875 350.996094 C 436.570312 353.636719 436.414062 356.296875 436.203125 359.011719 C 435.789062 364.4375 435.160156 370.085938 435.324219 376.207031 C 439.464844 371.867188 435.441406 379.78125 439.699219 379.027344 C 439.96875 381.859375 439.902344 382.953125 439.632812 383.214844 L 439.808594 382.617188 C 439.726562 382.875 439.675781 383.019531 439.605469 383.234375 L 439.621094 383.234375 L 437.082031 391.867188 C 435.839844 393.914062 436.140625 389.152344 435.183594 389.417969 C 434.855469 395.660156 433.378906 392.035156 432.25 396.167969 C 433.769531 395.320312 434.429688 398.339844 433.851562 401.898438 L 435.8125 396.886719 C 438.078125 405.609375 432.238281 404.429688 434.484375 413.226562 L 433.140625 410.445312 C 433.9375 414.957031 433.113281 427.09375 436.535156 431.515625 C 436.046875 432.316406 434.882812 433.371094 434.574219 431.386719 C 434.316406 436.777344 435.230469 442.78125 435.9375 448.480469 C 436.292969 451.335938 436.597656 454.109375 436.683594 456.699219 C 436.726562 457.992188 436.714844 459.238281 436.625 460.421875 C 436.578125 461.015625 436.515625 461.589844 436.433594 462.152344 C 436.386719 462.433594 436.34375 462.707031 436.285156 462.980469 C 436.234375 463.269531 436.171875 463.441406 436.105469 463.957031 C 435.757812 463.425781 435.414062 463.253906 435.066406 462.960938 C 435.085938 463.085938 435.109375 463.210938 435.140625 463.332031 L 435.183594 463.515625 C 435.203125 463.617188 435.214844 463.722656 435.234375 463.824219 C 435.304688 464.238281 435.390625 464.636719 435.480469 465.027344 C 435.664062 465.804688 435.867188 466.539062 436.027344 467.289062 C 436.183594 468.039062 436.304688 468.804688 436.320312 469.660156 C 436.328125 470.515625 436.234375 471.46875 435.972656 472.644531 C 435.542969 472.652344 434.933594 471.71875 434.875 473.394531 C 435.003906 474.027344 435.289062 475.335938 435.566406 476.894531 C 435.839844 478.460938 436.105469 480.261719 436.199219 482.097656 C 437.640625 482.027344 438.9375 482.046875 439.96875 482.203125 C 438.398438 482.597656 436.75 482.988281 435.023438 483.378906 C 439.332031 483.714844 443.621094 483.710938 447.496094 483.496094 C 449.4375 483.390625 451.28125 483.230469 453.03125 483.039062 C 453.464844 482.984375 453.894531 482.9375 454.324219 482.886719 L 454.640625 482.847656 L 454.792969 482.828125 L 454.886719 482.804688 L 455.25 482.726562 C 455.738281 482.613281 456.21875 482.496094 456.695312 482.375 C 460.519531 481.402344 464.132812 480.167969 468.542969 479.8125 C 468.519531 482.878906 476.800781 483.875 480.929688 484.367188 L 480.785156 484.800781 C 493.039062 485.183594 501.597656 482.261719 512.945312 481.058594 C 519.984375 484.386719 536.800781 482.449219 548.121094 484.316406 C 546.386719 483.761719 548.402344 481.929688 550.414062 481.621094 C 553.070312 482.246094 557.757812 479.492188 557.335938 482.308594 L 556.386719 482.253906 C 558.390625 485.007812 563.851562 484.277344 568.109375 484.355469 L 568.816406 480.671875 C 579.964844 486.023438 598.027344 478.707031 604.113281 483.5 C 606.800781 482.582031 610.132812 482.589844 612.800781 481.671875 L 612.65625 483.644531 C 620.113281 484.148438 623.835938 484.394531 633.046875 483.921875 L 631.167969 485.335938 C 636.363281 485.46875 637.730469 479.648438 642.527344 479.535156 L 643.96875 482.476562 C 653.03125 482.429688 662.210938 485.011719 671.167969 482.34375 C 671.019531 482.777344 670.757812 483.625 669.289062 483.746094 C 673.40625 483.820312 684.933594 485.605469 684.359375 482.109375 C 685.421875 484.054688 693.886719 481.890625 698.5 480.792969 L 697.738281 482.738281 C 701.871094 480.257812 702.003906 479.578125 707.773438 478.890625 C 709.03125 479.125 708.984375 480.238281 707.5625 480.03125 C 711.65625 480.792969 710.878906 478.140625 716.234375 479.144531 L 714.171875 480.386719 C 718.863281 480.535156 718.492188 479.871094 721.070312 478.425781 C 724.019531 477.644531 729.972656 478.914062 730.664062 480.667969 C 731.289062 479.601562 733.863281 478.167969 736.628906 478.675781 C 736.996094 479.335938 735.988281 479.75 735.488281 479.949219 C 743.328125 481.269531 747.144531 477.695312 752.539062 479.601562 C 752.648438 480.242188 753.003906 480.5625 753.449219 480.757812 C 747.769531 480.714844 743.101562 480.625 742.675781 480.5 C 742.746094 482.253906 747.675781 482.585938 743.699219 485.035156 C 747.738281 483.691406 754.648438 480.757812 759.550781 481.597656 C 759.789062 481.773438 760.019531 481.945312 760.199219 482.21875 L 759.691406 482.417969 C 760.820312 482.597656 761.835938 482.429688 762.792969 482.128906 C 764.359375 482.425781 765.351562 482.644531 766.855469 482.667969 C 767.433594 484.148438 772.625 483.464844 775.132812 483.535156 C 774.929688 481.597656 778.140625 481.890625 775.222656 480.328125 C 775.3125 480.441406 774.460938 480.519531 772.988281 480.59375 C 772.613281 480.652344 772.167969 480.683594 771.921875 480.792969 C 771.96875 480.742188 772.027344 480.683594 772.089844 480.625 C 770.445312 480.683594 768.292969 480.722656 765.859375 480.753906 C 767.835938 479.761719 769.910156 478.921875 772.683594 480.007812 C 773.972656 478.753906 775.386719 477.460938 776.1875 476.851562 C 779.621094 479.582031 786.238281 481.058594 787.15625 482.742188 C 794.820312 481.644531 805.203125 482.015625 810.023438 478.339844 C 812.203125 477.867188 812.527344 479.394531 813.339844 479.972656 C 812.085938 480.339844 810.589844 480.28125 809.90625 480.8125 C 814.261719 479.871094 822.8125 480.445312 823.851562 477.878906 C 829.339844 479.035156 820.765625 480.242188 828.308594 479.820312 L 827.289062 480.605469 C 841.804688 484.625 851.003906 474.515625 866.789062 478.996094 C 866.335938 478.839844 866.066406 478.679688 865.921875 478.417969 C 884.679688 480.742188 904.574219 476.234375 923.078125 479.925781 C 928.339844 480.664062 928.90625 479.027344 932.117188 477.777344 L 933.257812 479.878906 L 938.75 477.453125 C 946.53125 475.675781 952.226562 482.613281 962.082031 479.253906 L 960.8125 477.835938 C 964.351562 478.105469 972.019531 477.003906 971.433594 478.632812 C 971.796875 478.371094 972.589844 477.160156 973.976562 477.894531 L 974.085938 478.996094 L 982.777344 477.109375 C 989.515625 477.910156 981.722656 481.480469 991.554688 481.691406 C 995.214844 481.269531 1001.96875 478.492188 1000.59375 477.75 C 999.117188 477.699219 996.824219 477.070312 996.714844 475.964844 L 1000.058594 475.390625 C 1000.097656 475.1875 1000.140625 474.988281 1000.191406 474.78125 L 1000.726562 474.78125 L 1000.726562 472.789062 C 1000.933594 471.890625 1001.023438 471.011719 1000.726562 470.175781 L 1000.726562 435.257812 L 1001.265625 435.660156 L 1000.726562 434.46875 L 1000.726562 429.351562 C 1001.136719 429.511719 1001.492188 430 1001.664062 431.003906 C 1003.09375 427.292969 1000.632812 427.71875 1002.230469 424.53125 C 1002.480469 424.179688 1002.621094 424.339844 1002.730469 424.664062 L 1001.871094 421.042969 C 1002.480469 421.75 1003.917969 420.433594 1003.496094 422.660156 C 1005.167969 416.152344 1001.324219 412.167969 1003.515625 409.71875 L 1003.695312 410.265625 C 1002.964844 403.511719 1002.140625 406.367188 1000.726562 405.410156 L 1000.726562 401.1875 L 1004.320312 398.058594 " fill-opacity="1" fill-rule="nonzero"/><path fill="#e8f6e7" d="M 722.894531 330.726562 C 722.601562 330.902344 722.296875 331.027344 721.992188 331.128906 C 722.746094 330.976562 723.582031 330.976562 722.894531 330.726562 " fill-opacity="1" fill-rule="nonzero"/><path fill="#e8f6e7" d="M 721.554688 331.238281 C 721.703125 331.207031 721.847656 331.171875 721.992188 331.128906 C 721.839844 331.15625 721.691406 331.195312 721.554688 331.238281 " fill-opacity="1" fill-rule="nonzero"/><path fill="#e8f6e7" d="M 772.988281 480.59375 C 773.230469 480.550781 773.367188 480.46875 773.679688 480.449219 C 773.339844 480.277344 773.015625 480.128906 772.683594 480.007812 C 772.480469 480.21875 772.269531 480.421875 772.089844 480.625 C 772.398438 480.617188 772.710938 480.601562 772.988281 480.59375 " fill-opacity="1" fill-rule="nonzero"/><path fill="#e8f6e7" d="M 930.378906 332.570312 L 930.15625 332.523438 C 930.28125 332.578125 930.398438 332.632812 930.496094 332.699219 C 930.460938 332.652344 930.433594 332.613281 930.378906 332.570312 " fill-opacity="1" fill-rule="nonzero"/><path fill="#e8f6e7" d="M 930.621094 332.800781 C 930.585938 332.761719 930.546875 332.730469 930.496094 332.699219 C 930.527344 332.730469 930.558594 332.761719 930.621094 332.800781 " fill-opacity="1" fill-rule="nonzero"/><path fill="#e8f6e7" d="M 1004.097656 385.472656 L 1003.527344 391.976562 C 1004.285156 390.835938 1005.296875 389.347656 1005.484375 392.300781 C 1007.734375 384.105469 1003.785156 393.992188 1004.097656 385.472656 " fill-opacity="1" fill-rule="nonzero"/><path fill="#e8f6e7" d="M 1005.191406 365.316406 C 1005.542969 368.808594 1006.289062 365.277344 1006.71875 365.460938 C 1006.027344 363.25 1005.851562 362.710938 1005.191406 365.316406 " fill-opacity="1" fill-rule="nonzero"/><path fill="#e8f6e7" d="M 884.921875 330.890625 L 885.253906 329.226562 C 882.660156 329.472656 885.039062 329.882812 884.921875 330.890625 " fill-opacity="1" fill-rule="nonzero"/><path fill="#e8f6e7" d="M 884.921875 330.890625 L 884.898438 331.007812 C 884.910156 330.964844 884.917969 330.925781 884.921875 330.890625 " fill-opacity="1" fill-rule="nonzero"/><path fill="#e8f6e7" d="M 841.78125 327.269531 L 837.289062 327.914062 L 840.605469 327.523438 Z M 841.78125 327.269531 " fill-opacity="1" fill-rule="nonzero"/><path fill="#e8f6e7" d="M 595.96875 328.15625 L 596.78125 330.351562 C 598.601562 329.957031 598.984375 327.492188 595.96875 328.15625 " fill-opacity="1" fill-rule="nonzero"/><path fill="#e8f6e7" d="M 490.355469 330.390625 C 489.207031 329.292969 486.234375 328.585938 484.40625 329.664062 C 486.777344 329.816406 489.148438 330.675781 490.355469 330.390625 " fill-opacity="1" fill-rule="nonzero"/><path fill="#e8f6e7" d="M 571.988281 484.179688 L 575.992188 483.570312 L 574.109375 483.441406 Z M 571.988281 484.179688 " fill-opacity="1" fill-rule="nonzero"/></svg>