<svg xmlns="http://www.w3.org/2000/svg" xmlns:xlink="http://www.w3.org/1999/xlink" width="1920" zoomAndPan="magnify" viewBox="0 0 1440 809.999993" height="1080" preserveAspectRatio="xMidYMid meet" version="1.0"><defs><clipPath id="02134510e8"><path d="M 354 655 L 1086 655 L 1086 676.851562 L 354 676.851562 Z M 354 655 " clip-rule="nonzero"/></clipPath><clipPath id="d9d9ff34c2"><path d="M 372 133.101562 L 1068 133.101562 L 1068 660 L 372 660 Z M 372 133.101562 " clip-rule="nonzero"/></clipPath><clipPath id="b9f97ae8f8"><path d="M 353.46875 133.101562 L 1086.21875 133.101562 L 1086.21875 676.851562 L 353.46875 676.851562 Z M 353.46875 133.101562 " clip-rule="nonzero"/></clipPath></defs><g clip-path="url(#02134510e8)"><path fill="#045734" d="M 1085.546875 655.925781 L 1085.546875 668.179688 C 1085.546875 672.902344 1081.710938 676.738281 1076.839844 676.589844 L 758.449219 669.0625 L 756.972656 669.0625 L 756.824219 669.800781 L 683.023438 669.800781 L 682.875 669.0625 L 682.433594 669.0625 L 362.863281 676.589844 C 358.140625 676.738281 354.152344 672.902344 354.152344 668.179688 L 354.152344 655.925781 Z M 1085.546875 655.925781 " fill-opacity="1" fill-rule="nonzero"/></g><path fill="#dbefcf" d="M 354.300781 156.867188 L 1085.398438 156.867188 L 1085.398438 669.800781 L 758.300781 662.125 L 682.285156 662.125 L 354.300781 669.800781 Z M 354.300781 156.867188 " fill-opacity="1" fill-rule="nonzero"/><g clip-path="url(#d9d9ff34c2)"><path fill="#ffffff" d="M 1067.6875 641.902344 C 1067.6875 641.902344 1067.539062 641.902344 1067.242188 641.902344 L 1067.242188 645.59375 L 1063.109375 659.46875 C 1063.109375 659.46875 859.117188 652.972656 798.449219 652.972656 L 641.398438 652.972656 C 580.730469 652.972656 376.738281 659.46875 376.738281 659.46875 L 372.605469 645.59375 L 372.605469 624.488281 L 373.046875 624.488281 L 373.046875 148.75 C 373.046875 148.75 581.320312 133.839844 641.988281 133.839844 C 702.652344 133.839844 720.515625 148.75 720.515625 148.75 C 720.515625 148.75 738.375 133.839844 799.042969 133.839844 C 859.707031 133.839844 1067.835938 148.75 1067.835938 148.75 Z M 1067.6875 641.902344 " fill-opacity="1" fill-rule="nonzero"/></g><g clip-path="url(#b9f97ae8f8)"><path fill="#013b23" d="M 1068.277344 156.277344 L 1068.277344 148.011719 L 1067.6875 148.011719 C 1065.621094 147.863281 858.824219 133.101562 798.746094 133.101562 C 742.507812 133.101562 723.171875 145.796875 720.21875 147.863281 C 717.414062 145.796875 698.078125 133.101562 641.839844 133.101562 C 581.765625 133.101562 374.964844 147.863281 372.898438 148.011719 L 372.308594 148.011719 L 372.308594 156.277344 L 353.859375 156.277344 L 353.859375 670.246094 L 354.152344 670.246094 C 354.597656 671.867188 355.335938 673.34375 356.515625 674.378906 C 358.285156 676 360.5 676.886719 362.863281 676.886719 L 363.007812 676.886719 L 682.433594 669.359375 L 682.578125 670.097656 L 757.417969 670.097656 L 757.5625 669.359375 L 758.597656 669.359375 L 1076.984375 676.886719 C 1079.496094 676.886719 1081.710938 676 1083.480469 674.378906 C 1084.660156 673.195312 1085.546875 671.722656 1085.84375 670.246094 L 1086.136719 670.246094 L 1086.136719 156.277344 Z M 1076.984375 676 L 758.597656 668.472656 L 757.710938 668.472656 L 758.746094 662.570312 L 1084.808594 670.246094 C 1084.367188 671.574219 1083.777344 672.753906 1082.742188 673.640625 C 1081.117188 675.261719 1079.050781 676 1076.984375 676 Z M 756.382812 669.210938 L 683.464844 669.210938 L 683.464844 669.0625 L 683.316406 668.472656 L 682.285156 662.570312 L 682.136719 661.980469 L 682.136719 661.683594 L 757.5625 661.683594 L 757.5625 661.980469 L 757.417969 662.570312 L 756.382812 668.472656 Z M 357.253906 673.789062 C 356.21875 672.753906 355.628906 671.722656 355.1875 670.390625 L 681.25 662.714844 L 682.285156 668.472656 L 363.007812 676 C 360.796875 676 358.730469 675.261719 357.253906 673.789062 Z M 354.890625 655.335938 L 354.890625 157.457031 L 372.457031 157.457031 L 372.457031 624.488281 L 372.015625 624.488281 L 372.015625 645.59375 L 374.964844 655.1875 L 375.113281 655.777344 L 375.261719 656.371094 L 376.292969 659.910156 L 376.738281 659.910156 C 377.769531 659.910156 436.371094 657.992188 499.695312 656.371094 C 506.925781 656.222656 514.011719 655.925781 521.246094 655.777344 C 528.921875 655.632812 536.300781 655.335938 543.828125 655.1875 C 583.976562 654.15625 621.027344 653.417969 641.398438 653.417969 L 682.433594 653.417969 L 682.136719 655.1875 L 681.988281 655.777344 L 681.839844 656.371094 L 680.957031 661.535156 L 354.890625 669.210938 L 354.742188 669.210938 L 354.742188 655.925781 Z M 373.636719 156.277344 L 373.636719 149.191406 C 385.296875 148.304688 583.535156 134.28125 641.988281 134.28125 C 698.226562 134.28125 717.710938 147.273438 719.925781 148.894531 L 719.925781 641.164062 C 715.792969 639.835938 695.273438 633.933594 641.988281 633.933594 C 583.535156 633.933594 386.035156 641.019531 373.636719 641.460938 L 373.636719 156.867188 C 373.636719 156.867188 373.636719 156.277344 373.636719 156.277344 Z M 720.957031 149.042969 C 723.171875 147.417969 742.507812 134.429688 798.894531 134.429688 C 857.347656 134.429688 1055.433594 148.453125 1067.242188 149.339844 L 1067.242188 641.3125 C 1067.097656 641.3125 1066.949219 641.3125 1066.800781 641.3125 C 1050.417969 640.722656 856.609375 633.785156 799.042969 633.785156 C 745.753906 633.785156 725.238281 639.691406 721.105469 641.019531 L 721.105469 156.277344 Z M 681.546875 661.832031 Z M 1063.554688 655.925781 L 1063.40625 656.515625 L 1062.667969 658.878906 C 1058.386719 658.730469 1024.289062 657.699219 981.042969 656.515625 C 974.398438 656.371094 967.757812 656.074219 960.820312 655.925781 C 953.882812 655.777344 947.089844 655.484375 940.007812 655.335938 C 884.949219 653.859375 826.203125 652.53125 798.304688 652.53125 L 755.054688 652.53125 L 722.285156 642.050781 C 727.894531 640.28125 748.855469 635.113281 799.042969 635.113281 C 856.757812 635.113281 1050.859375 642.050781 1066.800781 642.640625 L 1066.800781 645.742188 L 1063.847656 655.484375 Z M 376.292969 655.925781 L 376.148438 655.335938 L 373.195312 645.59375 L 373.195312 642.640625 C 376.589844 642.496094 582.355469 635.113281 641.988281 635.113281 C 692.027344 635.113281 712.988281 640.28125 718.59375 642.050781 L 684.792969 652.53125 L 641.398438 652.53125 C 613.5 652.53125 554.898438 653.859375 499.695312 655.335938 C 492.609375 655.484375 485.820312 655.777344 478.882812 655.925781 C 471.945312 656.074219 465.300781 656.371094 458.660156 656.515625 C 415.558594 657.699219 381.3125 658.878906 377.03125 658.878906 L 376.292969 656.515625 Z M 758.300781 661.832031 Z M 1084.957031 655.335938 L 1084.957031 669.210938 L 1084.808594 669.210938 L 758.597656 661.535156 L 757.710938 656.371094 L 757.5625 655.777344 L 757.417969 655.1875 L 757.121094 653.417969 L 798.15625 653.417969 C 818.671875 653.417969 855.722656 654.15625 895.722656 655.1875 C 903.253906 655.335938 910.632812 655.632812 918.308594 655.777344 C 925.539062 655.925781 932.625 656.222656 939.859375 656.371094 C 1003.328125 658.140625 1061.78125 659.910156 1062.816406 659.910156 L 1063.257812 659.910156 L 1064.292969 656.371094 L 1064.4375 655.777344 L 1064.585938 655.1875 L 1067.539062 645.742188 L 1067.539062 642.496094 L 1068.128906 642.496094 L 1068.128906 157.457031 L 1084.660156 157.457031 L 1084.660156 655.1875 L 1084.957031 655.1875 Z M 1084.957031 655.335938 " fill-opacity="1" fill-rule="nonzero"/></g></svg>