<svg xmlns="http://www.w3.org/2000/svg" xmlns:xlink="http://www.w3.org/1999/xlink" width="1920" zoomAndPan="magnify" viewBox="0 0 1440 809.999993" height="1080" preserveAspectRatio="xMidYMid meet" version="1.0"><defs><g/><clipPath id="e78679092d"><path d="M 407 261.675781 L 452 261.675781 L 452 316 L 407 316 Z M 407 261.675781 " clip-rule="nonzero"/></clipPath><clipPath id="e28512e37d"><path d="M 383 328 L 415 328 L 415 365.925781 L 383 365.925781 Z M 383 328 " clip-rule="nonzero"/></clipPath><clipPath id="36cbdbb253"><path d="M 368.9375 293 L 392 293 L 392 321 L 368.9375 321 Z M 368.9375 293 " clip-rule="nonzero"/></clipPath><clipPath id="7cfd360583"><path d="M 994 440 L 1039 440 L 1039 494.628906 L 994 494.628906 Z M 994 440 " clip-rule="nonzero"/></clipPath><clipPath id="f023038cc0"><path d="M 1031 390.378906 L 1063 390.378906 L 1063 429 L 1031 429 Z M 1031 390.378906 " clip-rule="nonzero"/></clipPath><clipPath id="cf7a244731"><path d="M 1054 435 L 1077.054688 435 L 1077.054688 464 L 1054 464 Z M 1054 435 " clip-rule="nonzero"/></clipPath></defs><g clip-path="url(#e78679092d)"><path fill="#e2a9f1" d="M 445.234375 291.902344 C 446.601562 291.578125 447.941406 291.128906 449.308594 290.800781 C 450.621094 290.484375 452.089844 290.179688 451.921875 288.488281 C 451.773438 287.015625 450.371094 286.898438 449.144531 286.757812 C 444.832031 286.257812 441.511719 283.914062 438.363281 281.117188 C 433.679688 276.953125 432.957031 271.175781 431.703125 265.585938 C 431.582031 265.054688 431.554688 264.503906 431.4375 263.972656 C 431.191406 262.839844 430.726562 261.777344 429.363281 261.886719 C 428.027344 261.992188 427.753906 263.050781 427.617188 264.238281 C 427.070312 269.011719 426.144531 273.652344 423.347656 277.75 C 420.320312 282.1875 417.082031 285.898438 410.835938 284.132812 C 409.550781 283.765625 407.625 283.632812 407.46875 285.863281 C 407.710938 287.527344 408.847656 288.152344 410.109375 288.585938 C 419.03125 291.683594 423.839844 298.289062 424.128906 307.84375 C 424.179688 309.476562 424.335938 311.101562 424.476562 312.726562 C 424.582031 313.902344 424.496094 315.421875 426.128906 315.429688 C 427.980469 315.441406 427.84375 313.800781 427.925781 312.519531 C 428.160156 309.03125 428.835938 305.640625 430.394531 302.492188 C 433.445312 296.328125 438.84375 293.417969 445.234375 291.902344 Z M 442.226562 288.917969 C 434.914062 290.433594 430.421875 294.710938 426.886719 300.511719 C 424.765625 295.335938 422.5 290.925781 418.214844 287.742188 C 424.105469 284.925781 426.832031 279.796875 429.6875 274.121094 C 431.636719 280.894531 436.265625 284.917969 442.226562 288.917969 Z M 442.226562 288.917969 " fill-opacity="1" fill-rule="nonzero"/></g><g clip-path="url(#e28512e37d)"><path fill="#e2a9f1" d="M 410.121094 349.324219 C 411.089844 349.09375 412.039062 348.773438 413.007812 348.539062 C 413.9375 348.316406 414.980469 348.101562 414.859375 346.902344 C 414.757812 345.859375 413.761719 345.773438 412.894531 345.675781 C 409.835938 345.320312 407.480469 343.660156 405.25 341.675781 C 401.929688 338.726562 401.414062 334.625 400.523438 330.664062 C 400.441406 330.289062 400.421875 329.898438 400.339844 329.519531 C 400.164062 328.71875 399.832031 327.964844 398.867188 328.039062 C 397.917969 328.117188 397.726562 328.867188 397.628906 329.707031 C 397.238281 333.09375 396.582031 336.382812 394.601562 339.289062 C 392.457031 342.433594 390.160156 345.066406 385.730469 343.8125 C 384.816406 343.554688 383.453125 343.457031 383.34375 345.042969 C 383.515625 346.222656 384.320312 346.664062 385.214844 346.972656 C 391.542969 349.167969 394.949219 353.851562 395.15625 360.628906 C 395.191406 361.78125 395.304688 362.9375 395.402344 364.089844 C 395.476562 364.921875 395.414062 366 396.574219 366.007812 C 397.886719 366.011719 397.789062 364.847656 397.847656 363.941406 C 398.011719 361.46875 398.492188 359.066406 399.597656 356.832031 C 401.761719 352.460938 405.589844 350.398438 410.117188 349.324219 Z M 407.984375 347.207031 C 402.800781 348.28125 399.617188 351.3125 397.109375 355.429688 C 395.605469 351.757812 394 348.628906 390.960938 346.371094 C 395.136719 344.375 397.074219 340.738281 399.097656 336.714844 C 400.476562 341.519531 403.761719 344.371094 407.984375 347.207031 Z M 407.984375 347.207031 " fill-opacity="1" fill-rule="nonzero"/></g><g clip-path="url(#36cbdbb253)"><path fill="#e2a9f1" d="M 388.257812 308.464844 C 388.957031 308.300781 389.640625 308.070312 390.339844 307.902344 C 391.011719 307.738281 391.761719 307.585938 391.675781 306.71875 C 391.601562 305.964844 390.882812 305.90625 390.257812 305.832031 C 388.050781 305.578125 386.351562 304.378906 384.742188 302.949219 C 382.347656 300.820312 381.976562 297.863281 381.335938 295.003906 C 381.273438 294.734375 381.257812 294.453125 381.199219 294.179688 C 381.074219 293.597656 380.835938 293.054688 380.136719 293.113281 C 379.453125 293.164062 379.316406 293.707031 379.246094 294.316406 C 378.964844 296.757812 378.492188 299.128906 377.0625 301.226562 C 375.511719 303.496094 373.855469 305.394531 370.660156 304.492188 C 370.003906 304.304688 369.015625 304.234375 368.9375 305.378906 C 369.0625 306.226562 369.644531 306.546875 370.289062 306.769531 C 374.851562 308.351562 377.3125 311.730469 377.460938 316.621094 C 377.488281 317.453125 377.566406 318.285156 377.640625 319.117188 C 377.691406 319.71875 377.648438 320.496094 378.484375 320.5 C 379.429688 320.507812 379.359375 319.667969 379.402344 319.011719 C 379.523438 317.226562 379.867188 315.492188 380.664062 313.882812 C 382.226562 310.730469 384.988281 309.242188 388.253906 308.464844 Z M 386.71875 306.9375 C 382.976562 307.714844 380.679688 309.902344 378.871094 312.871094 C 377.785156 310.222656 376.625 307.964844 374.433594 306.335938 C 377.449219 304.898438 378.84375 302.273438 380.304688 299.371094 C 381.300781 302.835938 383.667969 304.894531 386.71875 306.9375 Z M 386.71875 306.9375 " fill-opacity="1" fill-rule="nonzero"/></g><g clip-path="url(#7cfd360583)"><path fill="#e2a9f1" d="M 1000.757812 464.40625 C 999.390625 464.730469 998.050781 465.179688 996.683594 465.507812 C 995.371094 465.824219 993.902344 466.128906 994.070312 467.820312 C 994.21875 469.289062 995.621094 469.410156 996.847656 469.550781 C 1001.160156 470.050781 1004.480469 472.394531 1007.628906 475.191406 C 1012.3125 479.355469 1013.035156 485.132812 1014.289062 490.722656 C 1014.410156 491.253906 1014.4375 491.800781 1014.554688 492.335938 C 1014.800781 493.46875 1015.265625 494.53125 1016.628906 494.421875 C 1017.964844 494.316406 1018.238281 493.253906 1018.375 492.070312 C 1018.925781 487.296875 1019.847656 482.65625 1022.644531 478.558594 C 1025.671875 474.121094 1028.910156 470.410156 1035.15625 472.175781 C 1036.441406 472.542969 1038.371094 472.675781 1038.523438 470.441406 C 1038.28125 468.78125 1037.144531 468.15625 1035.882812 467.722656 C 1026.960938 464.625 1022.152344 458.019531 1021.863281 448.464844 C 1021.8125 446.832031 1021.65625 445.207031 1021.515625 443.582031 C 1021.414062 442.40625 1021.5 440.886719 1019.863281 440.878906 C 1018.011719 440.867188 1018.148438 442.507812 1018.066406 443.789062 C 1017.832031 447.277344 1017.15625 450.667969 1015.597656 453.816406 C 1012.546875 459.980469 1007.148438 462.890625 1000.757812 464.40625 Z M 1003.765625 467.390625 C 1011.078125 465.875 1015.570312 461.597656 1019.105469 455.796875 C 1021.226562 460.972656 1023.492188 465.382812 1027.777344 468.566406 C 1021.886719 471.382812 1019.160156 476.511719 1016.304688 482.1875 C 1014.355469 475.414062 1009.726562 471.390625 1003.765625 467.390625 Z M 1003.765625 467.390625 " fill-opacity="1" fill-rule="nonzero"/></g><g clip-path="url(#f023038cc0)"><path fill="#e2a9f1" d="M 1035.875 406.984375 C 1034.902344 407.214844 1033.953125 407.535156 1032.984375 407.765625 C 1032.054688 407.992188 1031.011719 408.207031 1031.132812 409.40625 C 1031.238281 410.449219 1032.230469 410.53125 1033.097656 410.632812 C 1036.15625 410.988281 1038.511719 412.648438 1040.746094 414.632812 C 1044.066406 417.582031 1044.578125 421.679688 1045.46875 425.644531 C 1045.550781 426.019531 1045.570312 426.410156 1045.652344 426.789062 C 1045.828125 427.589844 1046.160156 428.34375 1047.125 428.269531 C 1048.074219 428.191406 1048.265625 427.441406 1048.363281 426.601562 C 1048.753906 423.214844 1049.410156 419.925781 1051.390625 417.019531 C 1053.539062 413.875 1055.832031 411.242188 1060.261719 412.496094 C 1061.175781 412.753906 1062.539062 412.847656 1062.648438 411.265625 C 1062.476562 410.085938 1061.671875 409.644531 1060.777344 409.335938 C 1054.449219 407.140625 1051.042969 402.457031 1050.835938 395.679688 C 1050.800781 394.527344 1050.6875 393.371094 1050.589844 392.21875 C 1050.515625 391.386719 1050.578125 390.308594 1049.417969 390.300781 C 1048.105469 390.296875 1048.203125 391.460938 1048.144531 392.367188 C 1047.980469 394.839844 1047.5 397.242188 1046.394531 399.476562 C 1044.230469 403.847656 1040.402344 405.910156 1035.875 406.984375 Z M 1038.007812 409.101562 C 1043.191406 408.027344 1046.375 404.996094 1048.882812 400.878906 C 1050.386719 404.550781 1051.992188 407.675781 1055.03125 409.9375 C 1050.855469 411.929688 1048.917969 415.566406 1046.894531 419.59375 C 1045.515625 414.789062 1042.230469 411.9375 1038.007812 409.101562 Z M 1038.007812 409.101562 " fill-opacity="1" fill-rule="nonzero"/></g><g clip-path="url(#cf7a244731)"><path fill="#e2a9f1" d="M 1057.738281 447.84375 C 1057.035156 448.007812 1056.351562 448.238281 1055.652344 448.40625 C 1054.980469 448.566406 1054.230469 448.722656 1054.316406 449.589844 C 1054.390625 450.34375 1055.109375 450.402344 1055.734375 450.476562 C 1057.941406 450.730469 1059.640625 451.929688 1061.25 453.359375 C 1063.644531 455.488281 1064.015625 458.445312 1064.65625 461.304688 C 1064.71875 461.574219 1064.734375 461.855469 1064.792969 462.128906 C 1064.917969 462.707031 1065.15625 463.253906 1065.855469 463.195312 C 1066.539062 463.144531 1066.675781 462.601562 1066.746094 461.992188 C 1067.027344 459.550781 1067.5 457.175781 1068.929688 455.082031 C 1070.480469 452.8125 1072.136719 450.914062 1075.332031 451.816406 C 1075.988281 452.003906 1076.976562 452.074219 1077.054688 450.929688 C 1076.929688 450.082031 1076.347656 449.761719 1075.703125 449.539062 C 1071.140625 447.957031 1068.679688 444.574219 1068.53125 439.6875 C 1068.503906 438.855469 1068.425781 438.023438 1068.351562 437.191406 C 1068.300781 436.589844 1068.34375 435.8125 1067.507812 435.808594 C 1066.5625 435.800781 1066.632812 436.640625 1066.589844 437.296875 C 1066.46875 439.082031 1066.125 440.816406 1065.328125 442.425781 C 1063.765625 445.578125 1061.003906 447.066406 1057.738281 447.84375 Z M 1059.273438 449.371094 C 1063.015625 448.59375 1065.3125 446.40625 1067.121094 443.4375 C 1068.207031 446.085938 1069.367188 448.34375 1071.558594 449.972656 C 1068.542969 451.410156 1067.148438 454.035156 1065.6875 456.9375 C 1064.691406 453.472656 1062.324219 451.414062 1059.273438 449.371094 Z M 1059.273438 449.371094 " fill-opacity="1" fill-rule="nonzero"/></g><path fill="#feed60" d="M 725.714844 264.582031 C 718.421875 261.691406 709.832031 262.34375 702.171875 262.710938 C 694.394531 263.117188 686.574219 264.539062 680.171875 269.300781 C 667.648438 278.613281 663.597656 295.496094 669.066406 309.976562 C 672.027344 317.785156 677.414062 324.414062 684.183594 329.253906 C 687.667969 331.738281 691.558594 333.324219 695.367188 335.277344 C 698.6875 336.984375 703.550781 340.726562 701.523438 345.121094 C 701.28125 345.648438 701.28125 346.136719 701.445312 346.582031 C 701.484375 347.152344 701.6875 347.683594 702.132812 348.046875 C 701.242188 350.773438 702.78125 353.660156 705.496094 354.882812 C 706.671875 355.410156 707.96875 355.613281 709.304688 355.695312 C 708.898438 359.476562 713.234375 362.164062 716.839844 361.753906 C 720.527344 361.347656 723.488281 357.648438 721.542969 354.3125 C 723.285156 353.863281 724.90625 353.089844 725.917969 351.464844 C 727.132812 349.511719 727.09375 347.03125 726.039062 345.078125 C 726.121094 344.835938 726.160156 344.589844 726.121094 344.265625 C 725.230469 335.480469 732.847656 329.253906 737.0625 322.460938 C 740.871094 316.28125 743.058594 309.121094 743.625 301.878906 C 744.597656 288.292969 739.53125 270.113281 725.714844 264.582031 Z M 715.867188 357.933594 C 714.371094 357.890625 712.75 357.039062 713.234375 355.449219 C 714.613281 355.289062 715.992188 355.042969 717.289062 354.921875 C 717.410156 354.921875 717.488281 354.882812 717.613281 354.882812 C 717.613281 355.328125 717.734375 355.777344 718.097656 356.183594 C 719.109375 357.28125 716.476562 357.933594 715.867188 357.933594 Z M 722.109375 349.878906 C 720.691406 351.015625 718.257812 350.9375 716.558594 351.097656 C 714.410156 351.300781 712.304688 351.628906 710.15625 351.707031 C 708.777344 351.789062 704.441406 351.382812 705.859375 348.902344 C 705.941406 348.78125 705.980469 348.65625 706.023438 348.578125 C 711.492188 348.617188 716.921875 347.886719 722.230469 346.503906 C 723.121094 347.476562 723.242188 348.984375 722.109375 349.878906 Z M 739.816406 299.15625 C 739.65625 306.964844 737.386719 314.695312 733.171875 321.28125 C 728.835938 327.996094 722.148438 334.097656 722.109375 342.554688 C 718.90625 343.453125 715.667969 344.0625 712.425781 344.386719 C 714.167969 337.59375 715.019531 330.558594 714.9375 323.519531 C 714.898438 319.777344 714.574219 316.078125 714.003906 312.414062 C 713.761719 310.871094 713.519531 309.242188 713.195312 307.65625 C 713.4375 307.535156 713.640625 307.453125 713.882812 307.332031 C 719.839844 304.28125 723.566406 297.609375 723.242188 290.980469 C 723.121094 288.5 719.273438 288.5 719.394531 290.980469 C 719.636719 296.226562 716.882812 301.351562 712.222656 303.832031 C 712.058594 303.304688 711.859375 302.816406 711.65625 302.289062 C 710.5625 299.601562 708.046875 297.164062 704.929688 297.730469 C 702.457031 298.136719 701 300.375 701.039062 302.816406 C 701.078125 305.460938 702.863281 307.699219 705.332031 308.511719 C 706.671875 308.957031 708.089844 309 709.507812 308.796875 C 712.140625 320.550781 711.535156 333.121094 708.371094 344.671875 C 707.441406 344.710938 706.507812 344.710938 705.578125 344.710938 C 706.710938 338.734375 701.363281 333.894531 696.136719 331.371094 C 689.613281 328.199219 683.695312 324.902344 678.914062 319.25 C 669.191406 307.820312 667.246094 290.164062 676.726562 277.964844 C 681.265625 272.144531 687.625 268.648438 694.878906 267.347656 C 698.769531 266.65625 702.742188 266.53125 706.671875 266.453125 C 710.480469 266.371094 714.328125 266.25 718.097656 266.695312 C 721.824219 267.144531 725.554688 268.242188 728.59375 270.558594 C 731.347656 272.675781 733.453125 275.605469 735.074219 278.65625 C 738.398438 284.917969 739.9375 292.035156 739.816406 299.15625 Z M 708.496094 305.054688 C 707.035156 305.214844 705.578125 304.972656 705.007812 303.589844 C 704.683594 302.777344 704.726562 301.675781 705.699219 301.515625 C 707.277344 301.230469 708.128906 303.875 708.453125 304.929688 C 708.496094 304.972656 708.496094 305.011719 708.496094 305.054688 Z M 708.496094 305.054688 " fill-opacity="1" fill-rule="nonzero"/><g fill="#8c52ff" fill-opacity="1"><g transform="translate(446.112464, 416.966951)"><g><path d="M -9.328125 58.53125 C -11.285156 58.53125 -12.835938 57.914062 -13.984375 56.6875 C -15.128906 55.457031 -15.945312 53.921875 -16.4375 52.078125 C -16.925781 50.242188 -17.171875 48.425781 -17.171875 46.625 C -17.171875 44.007812 -16.492188 41.144531 -15.140625 38.03125 C -13.796875 34.925781 -12.019531 31.921875 -9.8125 29.015625 C -7.601562 26.109375 -5.3125 23.59375 -2.9375 21.46875 C -2.695312 17.132812 -2.554688 13.164062 -2.515625 9.5625 C -2.472656 5.96875 -2.453125 2.367188 -2.453125 -1.234375 C -2.453125 -4.503906 -2.472656 -7.566406 -2.515625 -10.421875 C -2.554688 -13.285156 -2.617188 -16.109375 -2.703125 -18.890625 L -2.703125 -38.53125 C -2.703125 -40.570312 -2.679688 -42.632812 -2.640625 -44.71875 C -2.597656 -46.8125 -2.535156 -48.921875 -2.453125 -51.046875 C -2.285156 -55.378906 -1.957031 -59.609375 -1.46875 -63.734375 C -0.976562 -67.867188 -0.285156 -71.816406 0.609375 -75.578125 C 1.429688 -79.265625 2.660156 -82.539062 4.296875 -85.40625 C 5.765625 -88.1875 7.5625 -90.414062 9.6875 -92.09375 C 11.820312 -93.769531 14.359375 -94.609375 17.296875 -94.609375 C 21.960938 -94.609375 25.5 -92.910156 27.90625 -89.515625 C 30.320312 -86.117188 31.53125 -81.84375 31.53125 -76.6875 C 31.53125 -71.695312 30.566406 -66.359375 28.640625 -60.671875 C 26.722656 -54.992188 24.332031 -49.25 21.46875 -43.4375 C 18.53125 -37.707031 15.300781 -32.144531 11.78125 -26.75 C 8.257812 -21.351562 4.863281 -16.523438 1.59375 -12.265625 C 1.675781 -11.609375 1.71875 -10.910156 1.71875 -10.171875 C 1.71875 -9.441406 1.71875 -8.75 1.71875 -8.09375 L 1.71875 -4.171875 C 1.71875 -2.128906 1.71875 -0.1875 1.71875 1.65625 C 1.71875 3.5 1.71875 5.28125 1.71875 7 C 1.71875 8.632812 1.695312 10.367188 1.65625 12.203125 C 1.613281 14.046875 1.550781 15.988281 1.46875 18.03125 C 3.757812 16.15625 6.457031 14.113281 9.5625 11.90625 C 12.675781 9.695312 15.785156 7.566406 18.890625 5.515625 C 22.003906 3.472656 24.664062 1.71875 26.875 0.25 C 30.800781 -2.375 34.476562 -4.929688 37.90625 -7.421875 C 41.34375 -9.921875 44.25 -12.5625 46.625 -15.34375 C 47.03125 -15.75 47.519531 -15.953125 48.09375 -15.953125 C 48.582031 -15.953125 49.050781 -15.785156 49.5 -15.453125 C 49.957031 -15.128906 50.1875 -14.640625 50.1875 -13.984375 C 50.1875 -13.253906 49.898438 -12.640625 49.328125 -12.140625 C 47.035156 -9.359375 43.863281 -6.472656 39.8125 -3.484375 C 35.769531 -0.503906 31.375 2.515625 26.625 5.578125 C 21.882812 8.648438 17.265625 11.738281 12.765625 14.84375 C 8.265625 17.957031 4.457031 20.984375 1.34375 23.921875 C 1.1875 27.523438 1.109375 30.921875 1.109375 34.109375 C 1.109375 37.296875 0.78125 40.851562 0.125 44.78125 C -0.445312 48.300781 -1.46875 51.472656 -2.9375 54.296875 C -4.414062 57.117188 -6.546875 58.53125 -9.328125 58.53125 Z M 1.34375 -21.234375 L 1.34375 -19.015625 C 4.125 -22.941406 7.03125 -27.253906 10.0625 -31.953125 C 13.09375 -36.660156 15.894531 -41.550781 18.46875 -46.625 C 21.039062 -51.695312 23.144531 -56.8125 24.78125 -61.96875 C 26.414062 -67.125 27.234375 -72.070312 27.234375 -76.8125 C 27.234375 -80.414062 26.457031 -83.585938 24.90625 -86.328125 C 23.351562 -89.066406 20.816406 -90.4375 17.296875 -90.4375 C 14.109375 -90.4375 11.550781 -89.066406 9.625 -86.328125 C 7.707031 -83.585938 6.257812 -80.332031 5.28125 -76.5625 C 4.707031 -74.269531 4.191406 -71.671875 3.734375 -68.765625 C 3.285156 -65.867188 2.914062 -63.007812 2.625 -60.1875 C 2.34375 -57.363281 2.125 -54.929688 1.96875 -52.890625 C 1.71875 -50.023438 1.570312 -47.445312 1.53125 -45.15625 C 1.488281 -42.863281 1.46875 -40.65625 1.46875 -38.53125 L 1.46875 -29.9375 C 1.382812 -28.550781 1.34375 -27.117188 1.34375 -25.640625 C 1.34375 -24.171875 1.34375 -22.703125 1.34375 -21.234375 Z M -9.328125 54.359375 C -8.097656 54.359375 -7.070312 53.519531 -6.25 51.84375 C -5.4375 50.164062 -4.820312 47.976562 -4.40625 45.28125 C -4 42.582031 -3.671875 39.65625 -3.421875 36.5 C -3.179688 33.351562 -2.984375 30.265625 -2.828125 27.234375 C -4.460938 28.867188 -6.054688 30.789062 -7.609375 33 C -9.160156 35.207031 -10.425781 37.476562 -11.40625 39.8125 C -12.394531 42.144531 -12.890625 44.414062 -12.890625 46.625 C -12.890625 48.34375 -12.617188 50.0625 -12.078125 51.78125 C -11.546875 53.5 -10.628906 54.359375 -9.328125 54.359375 Z M -9.328125 54.359375 "/></g></g></g><g fill="#8c52ff" fill-opacity="1"><g transform="translate(494.213582, 416.966951)"><g><path d="M 36.3125 -4.171875 C 34.4375 -4.171875 32.71875 -4.863281 31.15625 -6.25 C 29.601562 -7.644531 28.273438 -9.46875 27.171875 -11.71875 C 26.066406 -13.96875 25.226562 -16.378906 24.65625 -18.953125 C 24.082031 -21.535156 23.796875 -23.972656 23.796875 -26.265625 C 23.796875 -27.398438 23.859375 -28.601562 23.984375 -29.875 C 24.109375 -31.144531 24.253906 -32.554688 24.421875 -34.109375 L 25.515625 -43.1875 C 24.128906 -42.289062 22.640625 -41.515625 21.046875 -40.859375 C 19.453125 -40.203125 17.671875 -39.875 15.703125 -39.875 C 14.398438 -39.875 13.050781 -40.035156 11.65625 -40.359375 C 10.269531 -40.691406 8.796875 -41.101562 7.234375 -41.59375 C 7.234375 -41.019531 7.234375 -40.445312 7.234375 -39.875 C 7.234375 -39.300781 7.273438 -38.726562 7.359375 -38.15625 L 7.359375 -34.359375 C 7.359375 -31.492188 7.210938 -28.9375 6.921875 -26.6875 C 6.640625 -24.4375 6.109375 -22.226562 5.328125 -20.0625 C 4.554688 -17.894531 3.394531 -15.460938 1.84375 -12.765625 C 1.4375 -12.109375 0.820312 -11.78125 0 -11.78125 C -0.65625 -11.78125 -1.164062 -11.984375 -1.53125 -12.390625 C -1.90625 -12.796875 -2.09375 -13.25 -2.09375 -13.75 C -2.09375 -14.15625 -1.96875 -14.601562 -1.71875 -15.09375 C 0.320312 -18.113281 1.628906 -21.257812 2.203125 -24.53125 C 2.773438 -27.8125 3.0625 -31.207031 3.0625 -34.71875 C 3.0625 -35.539062 3.0625 -36.316406 3.0625 -37.046875 C 3.0625 -37.785156 3.019531 -38.566406 2.9375 -39.390625 C 2.863281 -40.117188 2.804688 -40.910156 2.765625 -41.765625 C 2.722656 -42.628906 2.703125 -43.515625 2.703125 -44.421875 C 2.703125 -45.078125 2.882812 -45.503906 3.25 -45.703125 C 3.613281 -45.910156 4.082031 -46.015625 4.65625 -46.015625 C 6.539062 -46.015625 8.34375 -45.726562 10.0625 -45.15625 C 11.863281 -44.5 13.703125 -44.171875 15.578125 -44.171875 C 16.722656 -44.171875 18.195312 -44.519531 20 -45.21875 C 21.800781 -45.914062 23.5 -46.585938 25.09375 -47.234375 C 26.6875 -47.890625 27.726562 -48.21875 28.21875 -48.21875 C 28.875 -48.21875 29.363281 -48.015625 29.6875 -47.609375 C 30.019531 -47.203125 30.1875 -46.789062 30.1875 -46.375 C 30.101562 -44.664062 29.957031 -42.988281 29.75 -41.34375 C 29.550781 -39.707031 29.285156 -38.070312 28.953125 -36.4375 C 28.628906 -34.800781 28.382812 -33.144531 28.21875 -31.46875 C 28.050781 -29.789062 27.96875 -28.054688 27.96875 -26.265625 C 27.96875 -23.890625 28.335938 -21.289062 29.078125 -18.46875 C 29.816406 -15.644531 30.816406 -13.226562 32.078125 -11.21875 C 33.347656 -9.21875 34.757812 -8.21875 36.3125 -8.21875 C 38.195312 -8.21875 39.789062 -9.015625 41.09375 -10.609375 C 42.40625 -12.203125 43.71875 -13.738281 45.03125 -15.21875 C 45.4375 -15.707031 45.96875 -15.953125 46.625 -15.953125 C 47.28125 -15.953125 47.789062 -15.6875 48.15625 -15.15625 C 48.53125 -14.625 48.71875 -14.15625 48.71875 -13.75 C 48.46875 -12.675781 47.707031 -11.382812 46.4375 -9.875 C 45.175781 -8.363281 43.644531 -7.035156 41.84375 -5.890625 C 40.039062 -4.742188 38.195312 -4.171875 36.3125 -4.171875 Z M 36.3125 -4.171875 "/></g></g></g><g fill="#8c52ff" fill-opacity="1"><g transform="translate(540.842222, 416.966951)"><g><path d="M 37.171875 -3.5625 C 35.460938 -3.5625 33.890625 -4.296875 32.453125 -5.765625 C 31.023438 -7.234375 29.71875 -9.113281 28.53125 -11.40625 C 27.34375 -13.695312 26.195312 -16.109375 25.09375 -18.640625 C 23.988281 -21.179688 22.90625 -23.515625 21.84375 -25.640625 C 21.925781 -24.742188 22.003906 -23.765625 22.078125 -22.703125 C 22.160156 -21.640625 22.203125 -20.535156 22.203125 -19.390625 C 22.203125 -16.847656 21.894531 -14.367188 21.28125 -11.953125 C 20.675781 -9.546875 19.613281 -7.566406 18.09375 -6.015625 C 16.582031 -4.460938 14.4375 -3.6875 11.65625 -3.6875 C 8.707031 -3.6875 5.90625 -4.789062 3.25 -7 C 0.59375 -9.207031 -1.550781 -11.945312 -3.1875 -15.21875 C -4.820312 -18.488281 -5.640625 -21.757812 -5.640625 -25.03125 C -5.640625 -27.644531 -5.003906 -30.257812 -3.734375 -32.875 C -2.472656 -35.5 -0.757812 -37.691406 1.40625 -39.453125 C 3.570312 -41.210938 6.046875 -42.09375 8.828125 -42.09375 C 11.941406 -42.09375 14.539062 -41.332031 16.625 -39.8125 C 18.707031 -38.300781 20.503906 -36.378906 22.015625 -34.046875 C 23.535156 -31.710938 24.867188 -29.28125 26.015625 -26.75 C 26.253906 -26.175781 26.722656 -25.128906 27.421875 -23.609375 C 28.117188 -22.097656 28.832031 -20.566406 29.5625 -19.015625 C 30.300781 -17.460938 30.878906 -16.273438 31.296875 -15.453125 C 32.191406 -13.742188 33.191406 -12.03125 34.296875 -10.3125 C 35.398438 -8.59375 36.359375 -7.734375 37.171875 -7.734375 C 38.078125 -7.734375 39.0625 -8.140625 40.125 -8.953125 C 41.1875 -9.773438 42.164062 -10.757812 43.0625 -11.90625 C 43.96875 -13.050781 44.625 -14.03125 45.03125 -14.84375 C 45.28125 -15.25 45.585938 -15.535156 45.953125 -15.703125 C 46.316406 -15.867188 46.664062 -15.953125 47 -15.953125 C 47.65625 -15.953125 48.164062 -15.726562 48.53125 -15.28125 C 48.894531 -14.832031 49.078125 -14.359375 49.078125 -13.859375 C 49.078125 -13.535156 48.914062 -13.085938 48.59375 -12.515625 C 48.019531 -11.367188 47.117188 -10.097656 45.890625 -8.703125 C 44.660156 -7.316406 43.289062 -6.113281 41.78125 -5.09375 C 40.269531 -4.070312 38.734375 -3.5625 37.171875 -3.5625 Z M 11.65625 -7.859375 C 13.695312 -7.859375 15.25 -8.960938 16.3125 -11.171875 C 17.382812 -13.296875 17.921875 -16.609375 17.921875 -21.109375 C 17.921875 -24.128906 17.734375 -26.90625 17.359375 -29.4375 C 16.992188 -31.976562 16.175781 -34.023438 14.90625 -35.578125 C 13.632812 -37.140625 11.609375 -37.921875 8.828125 -37.921875 C 6.703125 -37.921875 4.863281 -37.222656 3.3125 -35.828125 C 1.757812 -34.441406 0.578125 -32.765625 -0.234375 -30.796875 C -1.054688 -28.835938 -1.46875 -26.914062 -1.46875 -25.03125 C -1.46875 -22.570312 -0.835938 -20.015625 0.421875 -17.359375 C 1.691406 -14.703125 3.347656 -12.453125 5.390625 -10.609375 C 7.441406 -8.773438 9.53125 -7.859375 11.65625 -7.859375 Z M 11.65625 -7.859375 "/></g></g></g><g fill="#8c52ff" fill-opacity="1"><g transform="translate(587.71627, 416.966951)"><g><path d="M 24.421875 57.421875 C 19.753906 57.421875 16.476562 55.785156 14.59375 52.515625 C 12.71875 49.242188 11.78125 45.195312 11.78125 40.375 C 11.78125 36.445312 12.375 32.351562 13.5625 28.09375 C 14.75 23.84375 16.425781 19.894531 18.59375 16.25 C 20.757812 12.613281 23.316406 9.816406 26.265625 7.859375 C 26.015625 6.460938 25.765625 5.066406 25.515625 3.671875 C 25.273438 2.285156 24.988281 0.9375 24.65625 -0.375 C 24.332031 -1.757812 24.003906 -3.144531 23.671875 -4.53125 C 23.347656 -5.925781 23.023438 -7.359375 22.703125 -8.828125 C 20.734375 -6.867188 18.195312 -5.191406 15.09375 -3.796875 C 11.988281 -2.410156 9.328125 -1.71875 7.109375 -1.71875 C 3.835938 -1.71875 1.503906 -2.863281 0.109375 -5.15625 C -1.273438 -7.445312 -1.882812 -10.1875 -1.71875 -13.375 C -1.46875 -16.476562 -0.523438 -19.625 1.109375 -22.8125 C 2.742188 -26.007812 4.890625 -28.691406 7.546875 -30.859375 C 10.203125 -33.023438 13.164062 -34.109375 16.4375 -34.109375 C 19.300781 -34.109375 21.59375 -33.429688 23.3125 -32.078125 C 25.03125 -30.734375 26.296875 -29.015625 27.109375 -26.921875 C 27.929688 -24.835938 28.34375 -22.691406 28.34375 -20.484375 C 28.34375 -19.503906 28.117188 -18.175781 27.671875 -16.5 C 27.222656 -14.820312 26.710938 -13.492188 26.140625 -12.515625 C 26.546875 -11.128906 26.929688 -9.675781 27.296875 -8.15625 C 27.671875 -6.644531 28.019531 -5.070312 28.34375 -3.4375 C 28.664062 -1.800781 28.96875 -0.226562 29.25 1.28125 C 29.539062 2.800781 29.851562 4.253906 30.1875 5.640625 C 32.96875 3.429688 35.273438 1.304688 37.109375 -0.734375 C 38.953125 -2.773438 40.710938 -4.960938 42.390625 -7.296875 C 44.066406 -9.628906 45.96875 -12.269531 48.09375 -15.21875 C 48.507812 -15.707031 49.082031 -15.953125 49.8125 -15.953125 C 50.382812 -15.953125 50.875 -15.742188 51.28125 -15.328125 C 51.695312 -14.921875 51.90625 -14.429688 51.90625 -13.859375 C 51.90625 -13.453125 51.863281 -13.207031 51.78125 -13.125 L 51.40625 -12.390625 C 48.46875 -8.140625 45.398438 -4.148438 42.203125 -0.421875 C 39.015625 3.296875 35.378906 6.789062 31.296875 10.0625 C 31.785156 12.101562 32.414062 14.78125 33.1875 18.09375 C 33.96875 21.40625 34.644531 24.921875 35.21875 28.640625 C 35.789062 32.367188 36.078125 35.910156 36.078125 39.265625 C 36.078125 42.617188 35.75 45.6875 35.09375 48.46875 C 34.4375 51.25 33.269531 53.4375 31.59375 55.03125 C 29.914062 56.625 27.523438 57.421875 24.421875 57.421875 Z M 7.109375 -5.890625 C 9.648438 -5.890625 12.207031 -6.625 14.78125 -8.09375 C 17.363281 -9.570312 19.550781 -11.4375 21.34375 -13.6875 C 23.144531 -15.9375 24.046875 -18.285156 24.046875 -20.734375 C 24.046875 -23.109375 23.390625 -25.210938 22.078125 -27.046875 C 20.773438 -28.890625 18.894531 -29.8125 16.4375 -29.8125 C 14.144531 -29.8125 11.9375 -28.929688 9.8125 -27.171875 C 7.6875 -25.421875 5.945312 -23.273438 4.59375 -20.734375 C 3.25 -18.203125 2.578125 -15.75 2.578125 -13.375 C 2.578125 -11.332031 2.882812 -9.570312 3.5 -8.09375 C 4.113281 -6.625 5.316406 -5.890625 7.109375 -5.890625 Z M 24.421875 53.125 C 26.378906 53.125 27.890625 52.46875 28.953125 51.15625 C 30.015625 49.851562 30.75 48.140625 31.15625 46.015625 C 31.570312 43.890625 31.78125 41.640625 31.78125 39.265625 C 31.78125 37.222656 31.613281 34.910156 31.28125 32.328125 C 30.957031 29.753906 30.570312 27.132812 30.125 24.46875 C 29.675781 21.8125 29.203125 19.398438 28.703125 17.234375 C 28.210938 15.066406 27.804688 13.410156 27.484375 12.265625 C 25.765625 13.253906 24.1875 14.832031 22.75 17 C 21.320312 19.164062 20.117188 21.597656 19.140625 24.296875 C 18.160156 26.992188 17.40625 29.753906 16.875 32.578125 C 16.34375 35.398438 16.078125 38 16.078125 40.375 C 16.078125 43.882812 16.707031 46.882812 17.96875 49.375 C 19.238281 51.875 21.390625 53.125 24.421875 53.125 Z M 24.421875 53.125 "/></g></g></g><g fill="#8c52ff" fill-opacity="1"><g transform="translate(637.535295, 416.966951)"><g><path d="M 61.46875 0.609375 C 60.738281 0.609375 60.164062 0.363281 59.75 -0.125 C 59.425781 -0.613281 59 -1.632812 58.46875 -3.1875 C 57.9375 -4.738281 57.34375 -6.554688 56.6875 -8.640625 C 56.03125 -10.734375 55.375 -12.84375 54.71875 -14.96875 C 54.070312 -17.09375 53.5 -18.929688 53 -20.484375 C 52.269531 -22.941406 51.351562 -25.476562 50.25 -28.09375 C 49.144531 -30.71875 47.976562 -32.945312 46.75 -34.78125 C 45.519531 -36.625 44.332031 -37.546875 43.1875 -37.546875 C 42.457031 -37.546875 41.597656 -36.929688 40.609375 -35.703125 C 39.628906 -34.472656 38.585938 -32.9375 37.484375 -31.09375 C 36.378906 -29.257812 35.351562 -27.378906 34.40625 -25.453125 C 33.46875 -23.535156 32.675781 -21.921875 32.03125 -20.609375 C 31.375 -19.304688 30.550781 -17.691406 29.5625 -15.765625 C 28.582031 -13.847656 27.539062 -11.945312 26.4375 -10.0625 C 25.332031 -8.175781 24.269531 -6.617188 23.25 -5.390625 C 22.226562 -4.171875 21.347656 -3.5625 20.609375 -3.5625 C 19.140625 -3.5625 18.40625 -4.253906 18.40625 -5.640625 L 18.40625 -6.140625 C 18.40625 -6.378906 18.445312 -6.539062 18.53125 -6.625 C 18.851562 -7.28125 19.195312 -8.523438 19.5625 -10.359375 C 19.9375 -12.203125 20.304688 -14.3125 20.671875 -16.6875 C 21.046875 -19.0625 21.332031 -21.429688 21.53125 -23.796875 C 21.738281 -26.171875 21.84375 -28.257812 21.84375 -30.0625 C 21.84375 -32.019531 21.71875 -33.65625 21.46875 -34.96875 C 21.0625 -36.363281 20.53125 -37.0625 19.875 -37.0625 C 19.21875 -37.0625 18.378906 -36.546875 17.359375 -35.515625 C 16.335938 -34.492188 15.296875 -33.285156 14.234375 -31.890625 C 13.171875 -30.503906 12.1875 -29.160156 11.28125 -27.859375 C 10.46875 -26.628906 9.46875 -25.050781 8.28125 -23.125 C 7.09375 -21.207031 5.925781 -19.304688 4.78125 -17.421875 C 3.632812 -15.546875 2.65625 -13.992188 1.84375 -12.765625 C 1.59375 -12.347656 1.300781 -12.078125 0.96875 -11.953125 C 0.644531 -11.835938 0.320312 -11.78125 0 -11.78125 C -0.570312 -11.78125 -1.0625 -11.984375 -1.46875 -12.390625 C -1.882812 -12.796875 -2.09375 -13.285156 -2.09375 -13.859375 C -2.09375 -14.273438 -1.96875 -14.644531 -1.71875 -14.96875 C -1.144531 -16.113281 -0.304688 -17.644531 0.796875 -19.5625 C 1.898438 -21.488281 3.144531 -23.492188 4.53125 -25.578125 C 5.925781 -27.671875 7.195312 -29.492188 8.34375 -31.046875 C 9.570312 -32.679688 10.941406 -34.316406 12.453125 -35.953125 C 13.960938 -37.585938 15.453125 -38.957031 16.921875 -40.0625 C 18.398438 -41.164062 19.753906 -41.71875 20.984375 -41.71875 C 22.367188 -41.71875 23.453125 -41.125 24.234375 -39.9375 C 25.015625 -38.75 25.546875 -37.210938 25.828125 -35.328125 C 26.117188 -33.453125 26.265625 -31.535156 26.265625 -29.578125 C 26.265625 -26.953125 26.117188 -24.410156 25.828125 -21.953125 C 25.546875 -19.503906 25.15625 -17.503906 24.65625 -15.953125 C 25.226562 -16.765625 25.960938 -18.113281 26.859375 -20 C 27.765625 -21.882812 28.707031 -23.890625 29.6875 -26.015625 C 30.675781 -28.140625 31.535156 -29.898438 32.265625 -31.296875 C 33.578125 -33.828125 35.148438 -36.195312 36.984375 -38.40625 C 38.828125 -40.613281 40.894531 -41.71875 43.1875 -41.71875 C 44.738281 -41.71875 46.191406 -41.019531 47.546875 -39.625 C 48.898438 -38.238281 50.164062 -36.519531 51.34375 -34.46875 C 52.53125 -32.425781 53.578125 -30.382812 54.484375 -28.34375 C 55.296875 -26.625 56.109375 -24.578125 56.921875 -22.203125 C 57.742188 -19.835938 58.546875 -17.550781 59.328125 -15.34375 C 60.109375 -13.132812 60.742188 -11.375 61.234375 -10.0625 C 61.640625 -11.207031 62.085938 -12.738281 62.578125 -14.65625 C 63.066406 -16.582031 63.617188 -18.609375 64.234375 -20.734375 C 64.847656 -22.859375 65.421875 -24.863281 65.953125 -26.75 C 66.484375 -28.632812 66.910156 -30.109375 67.234375 -31.171875 C 68.222656 -34.359375 69.59375 -37.195312 71.34375 -39.6875 C 73.101562 -42.1875 75.253906 -43.4375 77.796875 -43.4375 C 80.410156 -43.4375 82.78125 -42.660156 84.90625 -41.109375 C 87.03125 -39.554688 88.953125 -37.570312 90.671875 -35.15625 C 92.390625 -32.738281 93.988281 -30.222656 95.46875 -27.609375 C 96.9375 -24.992188 98.488281 -22.457031 100.125 -20 C 101.757812 -17.539062 103.640625 -15.515625 105.765625 -13.921875 C 107.890625 -12.328125 110.265625 -11.53125 112.890625 -11.53125 C 113.867188 -11.53125 114.828125 -11.773438 115.765625 -12.265625 C 116.710938 -12.753906 117.59375 -13.65625 118.40625 -14.96875 C 118.894531 -15.625 119.507812 -15.953125 120.25 -15.953125 C 120.738281 -15.953125 121.226562 -15.785156 121.71875 -15.453125 C 122.207031 -15.128906 122.453125 -14.597656 122.453125 -13.859375 C 122.453125 -13.535156 122.332031 -13.171875 122.09375 -12.765625 C 120.863281 -10.796875 119.488281 -9.398438 117.96875 -8.578125 C 116.457031 -7.765625 114.765625 -7.359375 112.890625 -7.359375 C 109.773438 -7.359375 107.035156 -8.175781 104.671875 -9.8125 C 102.210938 -11.445312 100.0625 -13.429688 98.21875 -15.765625 C 96.382812 -18.097656 94.648438 -20.65625 93.015625 -23.4375 C 91.535156 -25.894531 90 -28.328125 88.40625 -30.734375 C 86.8125 -33.148438 85.15625 -35.175781 83.4375 -36.8125 C 81.71875 -38.445312 79.835938 -39.265625 77.796875 -39.265625 C 76.566406 -39.265625 75.460938 -38.503906 74.484375 -36.984375 C 73.503906 -35.472656 72.625 -33.570312 71.84375 -31.28125 C 71.0625 -29 70.347656 -26.710938 69.703125 -24.421875 C 69.128906 -22.296875 68.429688 -19.65625 67.609375 -16.5 C 66.785156 -13.351562 65.960938 -10.328125 65.140625 -7.421875 C 64.328125 -4.515625 63.632812 -2.328125 63.0625 -0.859375 C 62.90625 -0.367188 62.722656 -0.00390625 62.515625 0.234375 C 62.304688 0.484375 61.957031 0.609375 61.46875 0.609375 Z M 61.46875 0.609375 "/></g></g></g><g fill="#8c52ff" fill-opacity="1"><g transform="translate(757.910804, 416.966951)"><g><path d="M 18.28125 -4.046875 C 13.539062 -4.046875 9.242188 -5.085938 5.390625 -7.171875 C 1.546875 -9.265625 -1.515625 -12.046875 -3.796875 -15.515625 C -6.085938 -18.992188 -7.234375 -22.820312 -7.234375 -27 C -7.234375 -32.144531 -6.085938 -36.210938 -3.796875 -39.203125 C -1.515625 -42.191406 1.507812 -43.6875 5.28125 -43.6875 C 7.894531 -43.6875 10.082031 -42.785156 11.84375 -40.984375 C 13.601562 -39.179688 14.484375 -37.015625 14.484375 -34.484375 C 14.484375 -32.273438 13.96875 -29.898438 12.9375 -27.359375 C 11.914062 -24.828125 10.628906 -22.351562 9.078125 -19.9375 C 7.523438 -17.519531 5.847656 -15.332031 4.046875 -13.375 C 5.679688 -11.90625 7.644531 -10.675781 9.9375 -9.6875 C 12.226562 -8.707031 15.007812 -8.21875 18.28125 -8.21875 C 20.488281 -8.21875 22.675781 -8.867188 24.84375 -10.171875 C 27.007812 -11.484375 28.910156 -13.082031 30.546875 -14.96875 C 31.203125 -15.625 31.816406 -15.953125 32.390625 -15.953125 C 33.046875 -15.953125 33.578125 -15.726562 33.984375 -15.28125 C 34.398438 -14.832031 34.609375 -14.359375 34.609375 -13.859375 C 34.609375 -13.285156 34.441406 -12.796875 34.109375 -12.390625 C 31.410156 -9.773438 28.894531 -7.726562 26.5625 -6.25 C 24.226562 -4.78125 21.46875 -4.046875 18.28125 -4.046875 Z M 1.109375 -16.078125 C 2.253906 -17.546875 3.519531 -19.320312 4.90625 -21.40625 C 6.300781 -23.5 7.53125 -25.6875 8.59375 -27.96875 C 9.65625 -30.257812 10.1875 -32.429688 10.1875 -34.484375 C 10.1875 -37.835938 8.550781 -39.515625 5.28125 -39.515625 C 3.15625 -39.515625 1.476562 -38.859375 0.25 -37.546875 C -0.976562 -36.234375 -1.816406 -34.613281 -2.265625 -32.6875 C -2.710938 -30.769531 -2.9375 -28.875 -2.9375 -27 C -2.9375 -24.789062 -2.546875 -22.765625 -1.765625 -20.921875 C -0.992188 -19.078125 -0.0351562 -17.460938 1.109375 -16.078125 Z M 1.109375 -16.078125 "/></g></g></g><g fill="#8c52ff" fill-opacity="1"><g transform="translate(790.305433, 416.966951)"><g><path d="M 69.203125 -1.46875 C 66.179688 -1.46875 63.601562 -2.613281 61.46875 -4.90625 C 59.34375 -7.195312 57.503906 -9.734375 55.953125 -12.515625 C 54.972656 -14.234375 53.890625 -15.929688 52.703125 -17.609375 C 51.515625 -19.285156 50.222656 -20.675781 48.828125 -21.78125 C 47.441406 -22.882812 45.929688 -23.4375 44.296875 -23.4375 C 42.828125 -23.4375 41.234375 -22.800781 39.515625 -21.53125 C 37.796875 -20.257812 36.195312 -18.804688 34.71875 -17.171875 C 33.25 -15.535156 32.144531 -14.066406 31.40625 -12.765625 C 31.164062 -11.617188 30.960938 -10.207031 30.796875 -8.53125 C 30.628906 -6.851562 30.363281 -5.398438 30 -4.171875 C 29.632812 -2.941406 29 -2.328125 28.09375 -2.328125 C 27.519531 -2.328125 26.96875 -2.53125 26.4375 -2.9375 C 25.90625 -3.351562 25.640625 -3.890625 25.640625 -4.546875 C 25.640625 -5.441406 25.660156 -6.378906 25.703125 -7.359375 C 25.742188 -8.335938 25.804688 -9.28125 25.890625 -10.1875 C 25.972656 -11.082031 26.015625 -12.019531 26.015625 -13 C 26.015625 -13.988281 26.015625 -15.015625 26.015625 -16.078125 C 26.015625 -18.035156 25.867188 -20.035156 25.578125 -22.078125 C 25.296875 -24.128906 24.765625 -25.828125 23.984375 -27.171875 C 23.210938 -28.523438 22.007812 -29.203125 20.375 -29.203125 C 17.914062 -29.203125 15.847656 -28.691406 14.171875 -27.671875 C 12.492188 -26.648438 11.019531 -25.300781 9.75 -23.625 C 8.488281 -21.945312 7.222656 -20.125 5.953125 -18.15625 C 4.679688 -16.195312 3.1875 -14.273438 1.46875 -12.390625 C 1.0625 -11.984375 0.613281 -11.78125 0.125 -11.78125 C -0.363281 -11.78125 -0.851562 -11.921875 -1.34375 -12.203125 C -1.84375 -12.492188 -2.09375 -13.007812 -2.09375 -13.75 C -2.09375 -13.988281 -2.070312 -14.226562 -2.03125 -14.46875 C -1.988281 -14.71875 -1.800781 -15.046875 -1.46875 -15.453125 C 0.90625 -19.054688 3.15625 -22.1875 5.28125 -24.84375 C 7.40625 -27.5 9.648438 -29.582031 12.015625 -31.09375 C 14.390625 -32.613281 17.175781 -33.375 20.375 -33.375 C 23.726562 -33.375 26.179688 -32.046875 27.734375 -29.390625 C 29.285156 -26.734375 30.144531 -23.070312 30.3125 -18.40625 C 32.1875 -20.613281 34.164062 -22.695312 36.25 -24.65625 C 38.34375 -26.625 41.023438 -27.609375 44.296875 -27.609375 C 47.398438 -27.609375 50.054688 -26.484375 52.265625 -24.234375 C 54.472656 -21.984375 56.394531 -19.46875 58.03125 -16.6875 C 59.101562 -14.96875 60.207031 -13.269531 61.34375 -11.59375 C 62.488281 -9.914062 63.71875 -8.503906 65.03125 -7.359375 C 66.34375 -6.210938 67.734375 -5.640625 69.203125 -5.640625 C 71.660156 -5.640625 73.625 -6.414062 75.09375 -7.96875 C 76.5625 -9.53125 78.28125 -11.78125 80.25 -14.71875 C 80.570312 -15.539062 81.226562 -15.953125 82.21875 -15.953125 C 82.945312 -15.953125 83.472656 -15.707031 83.796875 -15.21875 C 84.128906 -14.726562 84.296875 -14.238281 84.296875 -13.75 C 84.296875 -13.332031 84.253906 -13.046875 84.171875 -12.890625 C 82.453125 -10.109375 80.40625 -7.507812 78.03125 -5.09375 C 75.664062 -2.675781 72.722656 -1.46875 69.203125 -1.46875 Z M 69.203125 -1.46875 "/></g></g></g><g fill="#8c52ff" fill-opacity="1"><g transform="translate(872.519075, 416.966951)"><g><path d="M 17.296875 -0.609375 C 12.554688 -0.609375 8.628906 -1.976562 5.515625 -4.71875 C 2.410156 -7.457031 -0.0820312 -11 -1.96875 -15.34375 C -3.03125 -18.039062 -4.007812 -21.066406 -4.90625 -24.421875 C -5.644531 -27.609375 -6.21875 -30.878906 -6.625 -34.234375 C -7.03125 -37.585938 -7.359375 -40.816406 -7.609375 -43.921875 C -9.078125 -44.003906 -10.40625 -44.085938 -11.59375 -44.171875 C -12.78125 -44.253906 -13.945312 -44.539062 -15.09375 -45.03125 C -15.664062 -45.113281 -15.910156 -45.460938 -15.828125 -46.078125 C -15.742188 -46.691406 -15.457031 -47.039062 -14.96875 -47.125 C -13.820312 -47.28125 -12.675781 -47.398438 -11.53125 -47.484375 C -10.382812 -47.566406 -9.160156 -47.609375 -7.859375 -47.609375 C -7.929688 -48.265625 -7.988281 -49.328125 -8.03125 -50.796875 C -8.070312 -52.265625 -8.132812 -53.921875 -8.21875 -55.765625 C -8.300781 -57.609375 -8.363281 -59.347656 -8.40625 -60.984375 C -8.445312 -62.617188 -8.46875 -63.925781 -8.46875 -64.90625 C -8.46875 -65.644531 -8.097656 -66.238281 -7.359375 -66.6875 C -6.628906 -67.132812 -5.894531 -67.070312 -5.15625 -66.5 C -4.175781 -61.425781 -3.601562 -55.171875 -3.4375 -47.734375 C -1.394531 -47.648438 0.546875 -47.609375 2.390625 -47.609375 C 4.234375 -47.609375 6.015625 -47.609375 7.734375 -47.609375 L 18.78125 -47.609375 C 19.425781 -47.523438 19.8125 -47.132812 19.9375 -46.4375 C 20.0625 -45.75 19.921875 -45.28125 19.515625 -45.03125 C 17.953125 -44.21875 15.617188 -43.8125 12.515625 -43.8125 L -3.0625 -43.8125 C -2.820312 -39.3125 -2.289062 -34.75 -1.46875 -30.125 C -0.65625 -25.5 0.503906 -21.265625 2.015625 -17.421875 C 3.535156 -13.578125 5.457031 -10.488281 7.78125 -8.15625 C 10.113281 -5.820312 12.957031 -4.65625 16.3125 -4.65625 C 18.519531 -4.65625 20.421875 -5.1875 22.015625 -6.25 C 23.617188 -7.320312 25.03125 -8.65625 26.25 -10.25 C 27.476562 -11.84375 28.585938 -13.375 29.578125 -14.84375 C 30.222656 -15.582031 30.796875 -15.953125 31.296875 -15.953125 C 31.941406 -15.953125 32.429688 -15.828125 32.765625 -15.578125 C 33.742188 -14.597656 33.90625 -13.617188 33.25 -12.640625 C 32.4375 -11.003906 31.226562 -9.242188 29.625 -7.359375 C 28.03125 -5.484375 26.191406 -3.890625 24.109375 -2.578125 C 22.023438 -1.265625 19.753906 -0.609375 17.296875 -0.609375 Z M 17.296875 -0.609375 "/></g></g></g><g fill="#8c52ff" fill-opacity="1"><g transform="translate(904.054779, 416.966951)"><g><path d="M 15.09375 3.0625 C 9.613281 3.0625 5.378906 1.445312 2.390625 -1.78125 C -0.597656 -5.007812 -2.09375 -8.875 -2.09375 -13.375 C -2.09375 -16.40625 -1.394531 -19.269531 0 -21.96875 C 1.394531 -24.664062 3.296875 -26.875 5.703125 -28.59375 C 8.117188 -30.3125 10.878906 -31.171875 13.984375 -31.171875 C 14.640625 -31.171875 15.640625 -31.023438 16.984375 -30.734375 C 18.335938 -30.453125 19.628906 -30.023438 20.859375 -29.453125 C 22.085938 -28.878906 22.742188 -28.140625 22.828125 -27.234375 C 27.484375 -24.453125 29.976562 -19.585938 30.3125 -12.640625 C 31.289062 -12.390625 32.429688 -12.222656 33.734375 -12.140625 C 35.046875 -12.066406 36.113281 -12.03125 36.9375 -12.03125 C 38.8125 -12.03125 40.097656 -12.332031 40.796875 -12.9375 C 41.492188 -13.550781 42.535156 -14.351562 43.921875 -15.34375 C 44.335938 -15.75 44.832031 -15.953125 45.40625 -15.953125 C 46.050781 -15.953125 46.554688 -15.726562 46.921875 -15.28125 C 47.296875 -14.832031 47.484375 -14.359375 47.484375 -13.859375 C 47.484375 -13.367188 47.320312 -12.921875 47 -12.515625 C 45.851562 -10.796875 44.335938 -9.566406 42.453125 -8.828125 C 40.578125 -8.097656 38.738281 -7.734375 36.9375 -7.734375 C 33.820312 -7.734375 31.445312 -7.9375 29.8125 -8.34375 C 29.15625 -4.664062 27.617188 -1.847656 25.203125 0.109375 C 22.796875 2.078125 19.425781 3.0625 15.09375 3.0625 Z M 15.09375 -1.109375 C 21.226562 -1.109375 24.742188 -3.765625 25.640625 -9.078125 C 23.347656 -9.484375 20.9375 -10.257812 18.40625 -11.40625 C 15.875 -12.550781 13.726562 -13.941406 11.96875 -15.578125 C 10.207031 -17.210938 9.328125 -18.972656 9.328125 -20.859375 C 9.328125 -22.742188 9.9375 -24.175781 11.15625 -25.15625 C 12.382812 -26.132812 13.328125 -26.75 13.984375 -27 C 11.941406 -27 10.019531 -26.34375 8.21875 -25.03125 C 6.414062 -23.71875 4.960938 -22.039062 3.859375 -20 C 2.753906 -17.957031 2.203125 -15.75 2.203125 -13.375 C 2.203125 -9.445312 3.53125 -6.421875 6.1875 -4.296875 C 8.851562 -2.171875 11.820312 -1.109375 15.09375 -1.109375 Z M 26.015625 -13.25 C 25.929688 -15.789062 25.253906 -18.101562 23.984375 -20.1875 C 22.722656 -22.269531 21.394531 -23.722656 20 -24.546875 C 18.769531 -24.546875 17.457031 -24.21875 16.0625 -23.5625 C 14.675781 -22.90625 13.984375 -21.960938 13.984375 -20.734375 C 13.984375 -19.671875 14.695312 -18.585938 16.125 -17.484375 C 17.5625 -16.378906 19.21875 -15.457031 21.09375 -14.71875 C 22.976562 -13.988281 24.617188 -13.5 26.015625 -13.25 Z M 26.015625 -13.25 "/></g></g></g><g fill="#8c52ff" fill-opacity="1"><g transform="translate(949.456326, 416.966951)"><g><path d="M 18.890625 5.03125 C 17.253906 5.03125 15.472656 4.519531 13.546875 3.5 C 11.628906 2.476562 10.671875 0.941406 10.671875 -1.109375 C 10.671875 -3.804688 11.53125 -6.015625 13.25 -7.734375 C 14.96875 -9.453125 17.21875 -10.757812 20 -11.65625 C 22.78125 -12.550781 25.6875 -13.039062 28.71875 -13.125 C 29.039062 -14.1875 29.203125 -15.578125 29.203125 -17.296875 C 29.203125 -18.929688 28.875 -20.957031 28.21875 -23.375 C 27.5625 -25.789062 26.722656 -28.160156 25.703125 -30.484375 C 24.679688 -32.816406 23.617188 -34.78125 22.515625 -36.375 C 21.410156 -37.976562 20.410156 -38.78125 19.515625 -38.78125 C 19.347656 -38.78125 18.914062 -38.285156 18.21875 -37.296875 C 17.519531 -36.316406 16.722656 -35.148438 15.828125 -33.796875 C 14.929688 -32.453125 14.050781 -31.101562 13.1875 -29.75 C 12.332031 -28.40625 11.660156 -27.363281 11.171875 -26.625 C 10.179688 -25.15625 9.007812 -23.394531 7.65625 -21.34375 C 6.3125 -19.300781 5.066406 -17.421875 3.921875 -15.703125 C 2.773438 -13.984375 2 -12.878906 1.59375 -12.390625 C 1.1875 -11.984375 0.65625 -11.78125 0 -11.78125 C -0.820312 -11.78125 -1.375 -12.046875 -1.65625 -12.578125 C -1.945312 -13.109375 -2.09375 -13.535156 -2.09375 -13.859375 C -2.09375 -14.429688 -1.96875 -14.84375 -1.71875 -15.09375 C -0.570312 -16.5625 0.710938 -18.359375 2.140625 -20.484375 C 3.578125 -22.617188 5.007812 -24.769531 6.4375 -26.9375 C 7.875 -29.101562 9.082031 -31.003906 10.0625 -32.640625 C 11.039062 -34.191406 12.0625 -35.742188 13.125 -37.296875 C 14.1875 -38.859375 15.25 -40.171875 16.3125 -41.234375 C 17.382812 -42.296875 18.328125 -42.828125 19.140625 -42.828125 C 20.859375 -42.828125 22.554688 -41.988281 24.234375 -40.3125 C 25.910156 -38.632812 27.460938 -36.484375 28.890625 -33.859375 C 30.328125 -31.242188 31.453125 -28.460938 32.265625 -25.515625 C 33.085938 -22.578125 33.5 -19.835938 33.5 -17.296875 C 33.5 -16.640625 33.476562 -15.921875 33.4375 -15.140625 C 33.394531 -14.367188 33.332031 -13.695312 33.25 -13.125 L 34.484375 -13.125 C 34.640625 -13.039062 34.84375 -13 35.09375 -13 C 35.34375 -13 35.546875 -13 35.703125 -13 C 37.015625 -13 38.300781 -13.160156 39.5625 -13.484375 C 40.832031 -13.816406 41.960938 -14.4375 42.953125 -15.34375 C 43.359375 -15.75 43.804688 -15.953125 44.296875 -15.953125 C 45.109375 -15.953125 45.675781 -15.726562 46 -15.28125 C 46.332031 -14.832031 46.5 -14.320312 46.5 -13.75 C 46.5 -12.4375 45.820312 -11.410156 44.46875 -10.671875 C 43.125 -9.941406 41.613281 -9.453125 39.9375 -9.203125 C 38.257812 -8.953125 36.847656 -8.828125 35.703125 -8.828125 L 33.984375 -8.828125 C 33.578125 -8.828125 33.269531 -8.828125 33.0625 -8.828125 C 32.863281 -8.828125 32.722656 -8.828125 32.640625 -8.828125 C 31.984375 -6.617188 31.082031 -4.453125 29.9375 -2.328125 C 28.789062 -0.203125 27.316406 1.550781 25.515625 2.9375 C 23.722656 4.332031 21.515625 5.03125 18.890625 5.03125 Z M 18.890625 1.109375 C 21.515625 1.109375 23.582031 0.109375 25.09375 -1.890625 C 26.601562 -3.898438 27.6875 -6.210938 28.34375 -8.828125 C 26.300781 -8.753906 24.234375 -8.53125 22.140625 -8.15625 C 20.054688 -7.789062 18.335938 -7.078125 16.984375 -6.015625 C 15.640625 -4.953125 14.96875 -3.316406 14.96875 -1.109375 C 14.96875 0.367188 16.273438 1.109375 18.890625 1.109375 Z M 18.890625 1.109375 "/></g></g></g></svg>